<svg xmlns="http://www.w3.org/2000/svg" width="17" height="17" viewBox="0 0 25 25">
  <metadata><?xpacket begin="﻿" id="W5M0MpCehiHzreSzNTczkc9d"?>
<x:xmpmeta xmlns:x="adobe:ns:meta/" x:xmptk="Adobe XMP Core 5.6-c142 79.160924, 2017/07/13-01:06:39        ">
   <rdf:RDF xmlns:rdf="http://www.w3.org/1999/02/22-rdf-syntax-ns#">
      <rdf:Description rdf:about=""/>
   </rdf:RDF>
</x:xmpmeta>





















<?xpacket end="w"?></metadata>
<defs>
    <style>
      .cls-1 {
        fill: #ffcb05;
        fill-rule: evenodd;
      }
    </style>
  </defs>
  <path id="Forma_1" data-name="Forma 1" class="cls-1" d="M24.268,25H20.414V9.5L23.75,6.171A0.733,0.733,0,0,1,25,6.689V24.268A0.732,0.732,0,0,1,24.268,25ZM22.8,4.394a2.181,2.181,0,0,1-1.172-.345l-8.792,8.793a2.177,2.177,0,0,1,.345,1.172,2.2,2.2,0,0,1-4.395,0,2.177,2.177,0,0,1,.345-1.172L7.764,11.471a2.162,2.162,0,0,1-2.344,0L4.049,12.842a2.177,2.177,0,0,1,.345,1.172,2.2,2.2,0,1,1-2.2-2.2,2.166,2.166,0,0,1,.686.12L4.515,10.3a2.169,2.169,0,0,1-.12-0.685,2.2,2.2,0,0,1,4.395,0,2.173,2.173,0,0,1-.12.685L10.3,11.937a2.016,2.016,0,0,1,1.371,0l9.054-9.054a2.171,2.171,0,0,1-.12-0.685A2.2,2.2,0,1,1,22.8,4.394ZM5.859,15.175V25H2.2a0.732,0.732,0,0,1-.732-0.732V19.873a0.732,0.732,0,0,1,.215-0.518ZM10.254,25H7.324V15.175l2.93,2.93V25Zm4.433,0H11.719V18.1l2.968-2.959V25Zm4.253,0H16.211V13.682l2.729-2.719V25Z"/>
</svg>
