<svg xmlns="http://www.w3.org/2000/svg" width="28" height="31" viewBox="0 0 28 31">
  <metadata><?xpacket begin="﻿" id="W5M0MpCehiHzreSzNTczkc9d"?>
<x:xmpmeta xmlns:x="adobe:ns:meta/" x:xmptk="Adobe XMP Core 5.6-c142 79.160924, 2017/07/13-01:06:39        ">
   <rdf:RDF xmlns:rdf="http://www.w3.org/1999/02/22-rdf-syntax-ns#">
      <rdf:Description rdf:about=""/>
   </rdf:RDF>
</x:xmpmeta>
                                                                                                    
                                                                                                    
                                                                                                    
                                                                                                    
                                                                                                    
                                                                                                    
                                                                                                    
                                                                                                    
                                                                                                    
                                                                                                    
                                                                                                    
                                                                                                    
                                                                                                    
                                                                                                    
                                                                                                    
                                                                                                    
                                                                                                    
                                                                                                    
                                                                                                    
                                                                                                    
                           
<?xpacket end="w"?></metadata>
<defs>
    <style>
      .cls-1 {
        fill: #282827;
        fill-rule: evenodd;
      }
    </style>
  </defs>
  <path class="cls-1" d="M26.562,21.8L24.346,23.68a0.919,0.919,0,0,1-1.289-.1,0.9,0.9,0,0,1,.1-1.279l2.218-1.883a0.31,0.31,0,0,0,0-.477l-2.221-1.885a0.9,0.9,0,0,1-.1-1.279,0.92,0.92,0,0,1,1.289-.1l2.218,1.883A2.115,2.115,0,0,1,26.562,21.8ZM13,25a1.2,1.2,0,1,1-1.219,1.2A1.211,1.211,0,0,1,13,25Zm-0.7-6.441,0,0,2.264-1.883a0.92,0.92,0,0,1,1.288.112,0.9,0.9,0,0,1-.113,1.278l-2.261,1.88a0.31,0.31,0,0,0,0,.473l2.261,1.88a0.9,0.9,0,0,1,.113,1.278,0.919,0.919,0,0,1-1.288.112L12.307,21.8l0,0A2.115,2.115,0,0,1,12.3,18.559Zm6.16,6.11a0.914,0.914,0,0,1-.892-1.158l2.076-7.247a0.925,0.925,0,0,1,.892-0.664,0.915,0.915,0,0,1,.892,1.159L19.355,24A0.925,0.925,0,0,1,18.462,24.668Zm5.324-9.686a0.91,0.91,0,0,1-.914-0.907V4.339H3.124v22.2a1.824,1.824,0,0,0,1.829,1.814H21.044a1.824,1.824,0,0,0,1.829-1.814,0.914,0.914,0,0,1,1.829,0c0,2-1.64,4.239-3.657,4.239H4.953A4.788,4.788,0,0,1,.676,26.538V3.554c0-1.5,1.85-2.721,3.362-2.721H22.578a2.735,2.735,0,0,1,2.743,2.721V14.075C25.321,14.576,24.292,14.982,23.787,14.982ZM18.063,2.406H7.969V3.219H18.063V2.406Z"/>
</svg>
