<svg
  xmlns="http://www.w3.org/2000/svg"

  width="16px" height="16px">
  <path fill-rule="evenodd"  fill="rgb(255, 203, 5)"
        d="M13.790,2.017 C12.319,0.672 10.488,-0.000 8.301,-0.000 C6.003,-0.000 4.044,0.763 2.427,2.294 C0.810,3.825 -0.000,5.728 -0.000,8.006 C-0.000,10.190 0.770,12.067 2.308,13.640 C3.853,15.213 5.927,16.000 8.538,16.000 C10.112,16.000 11.657,15.680 13.171,15.037 C13.665,14.828 13.906,14.267 13.705,13.774 L13.705,13.774 C13.497,13.265 12.911,13.030 12.401,13.245 C11.084,13.806 9.793,14.087 8.535,14.087 C6.533,14.087 4.982,13.483 3.882,12.272 C2.786,11.065 2.236,9.645 2.236,8.016 C2.236,6.247 2.825,4.772 4.001,3.587 C5.173,2.405 6.619,1.811 8.331,1.811 C9.908,1.811 11.242,2.298 12.328,3.270 C13.415,4.243 13.958,5.467 13.958,6.942 C13.958,7.951 13.708,8.793 13.211,9.462 C12.714,10.134 12.197,10.467 11.660,10.467 C11.370,10.467 11.225,10.314 11.225,10.004 C11.225,9.752 11.245,9.459 11.281,9.119 L11.894,4.155 L9.786,4.155 L9.651,4.641 C9.115,4.207 8.525,3.988 7.886,3.988 C6.872,3.988 6.003,4.390 5.282,5.189 C4.557,5.989 4.198,7.020 4.198,8.281 C4.198,9.511 4.518,10.506 5.160,11.260 C5.802,12.018 6.572,12.393 7.475,12.393 C8.281,12.393 8.970,12.057 9.543,11.388 C9.974,12.031 10.609,12.351 11.449,12.351 C12.684,12.351 13.751,11.819 14.650,10.751 C15.549,9.687 16.000,8.401 16.000,6.896 C16.000,4.991 15.266,3.362 13.790,2.017 ZM8.937,9.527 C8.565,10.024 8.120,10.275 7.603,10.275 C7.251,10.275 6.968,10.092 6.754,9.726 C6.536,9.361 6.428,8.907 6.428,8.362 C6.428,7.690 6.579,7.148 6.882,6.737 C7.185,6.326 7.560,6.117 8.008,6.117 C8.397,6.117 8.743,6.270 9.045,6.580 C9.348,6.890 9.500,7.301 9.500,7.817 C9.497,8.460 9.309,9.028 8.937,9.527 Z"/>
</svg>
