<svg xmlns="http://www.w3.org/2000/svg" width="33" height="33" viewBox="0 0 33 33">
  <metadata><?xpacket begin="﻿" id="W5M0MpCehiHzreSzNTczkc9d"?>
<x:xmpmeta xmlns:x="adobe:ns:meta/" x:xmptk="Adobe XMP Core 5.6-c142 79.160924, 2017/07/13-01:06:39        ">
   <rdf:RDF xmlns:rdf="http://www.w3.org/1999/02/22-rdf-syntax-ns#">
      <rdf:Description rdf:about=""/>
   </rdf:RDF>
</x:xmpmeta>
                                                                                                    
                                                                                                    
                                                                                                    
                                                                                                    
                                                                                                    
                                                                                                    
                                                                                                    
                                                                                                    
                                                                                                    
                                                                                                    
                                                                                                    
                                                                                                    
                                                                                                    
                                                                                                    
                                                                                                    
                                                                                                    
                                                                                                    
                                                                                                    
                                                                                                    
                                                                                                    
                           
<?xpacket end="w"?></metadata>
<defs>
    <style>
      .cls-1 {
        fill: #282827;
        fill-rule: evenodd;
      }
    </style>
  </defs>
  <path class="cls-1" d="M32.508,16.244l-8.5,4.9a0.831,0.831,0,0,1-.831,0l-8.5-4.9a0.831,0.831,0,0,1-.416-0.719v-9.8a0.831,0.831,0,0,1,.416-0.719l8.5-4.9a0.834,0.834,0,0,1,.831,0l8.5,4.9a0.831,0.831,0,0,1,.416.719v9.8A0.831,0.831,0,0,1,32.508,16.244ZM30.847,6.672L23.878,2.718,16.908,6.672V14.58l6.97,3.954,6.969-3.954V6.672ZM22.22,13.885a0.736,0.736,0,0,1-.338-1L24.522,7.7a0.761,0.761,0,0,1,1.013-.331,0.737,0.737,0,0,1,.338,1l-2.639,5.191A0.761,0.761,0,0,1,22.22,13.885Zm4.717-5.657a0.764,0.764,0,0,1,1.068,0l1.9,1.872a0.734,0.734,0,0,1,0,1.05l-1.9,1.872a0.764,0.764,0,0,1-1.068,0,0.735,0.735,0,0,1,0-1.051l1.37-1.347L26.937,9.28A0.735,0.735,0,0,1,26.937,8.229Zm-6.118,4.795a0.764,0.764,0,0,1-1.069,0l-1.9-1.872a0.734,0.734,0,0,1,0-1.05l1.9-1.872a0.764,0.764,0,0,1,1.069,0,0.735,0.735,0,0,1,0,1.051l-1.37,1.346,1.37,1.347A0.735,0.735,0,0,1,20.818,13.023ZM9.94,17.493l6.8,2.492V30.059L8.718,33,0.7,30.059V19.985l6.857-2.514V12.607L12.8,10.622v2.527L9.94,14.232v3.261Zm0,12.541,4.413-1.617V22.5L9.94,24.12v5.913ZM3.083,28.416l4.472,1.64V24.142L3.083,22.5v5.913Zm2.241-7.609,3.394,1.244,3.394-1.244L8.718,19.563Z"/>
</svg>
