<?xml version="1.0" encoding="utf-8"?>
<!-- Generator: Adobe Illustrator 21.1.0, SVG Export Plug-In . SVG Version: 6.00 Build 0)  -->
<svg version="1.1" id="Layer_1" xmlns="http://www.w3.org/2000/svg" xmlns:xlink="http://www.w3.org/1999/xlink" x="0px" y="0px"
	 viewBox="0 0 245 81" style="enable-background:new 0 0 245 81;" xml:space="preserve">
<style type="text/css">
	.st0{fill:white;}
	.st1{fill:#1B75BB;}
	.st2{fill:#FAAB18;}
	.st3{fill:#EC1C24;}
</style>
<g>
	<path class="st0" d="M26.68337,23.96064c5.97758,0,10.4012,1.85316,14.46592,5.55924
		c0.53797,0.47828,0.53797,1.19557,0.05994,1.67384l-4.66263,4.8417c-0.41859,0.41859-1.07594,0.41859-1.49452,0
		c-2.21156-1.97255-5.14066-3.04848-8.06976-3.04848c-6.75481,0-11.71639,5.61893-11.71639,12.31405
		c0,6.63493,5.02128,12.13448,11.77608,12.13448c2.80947,0,5.8582-1.01599,8.01007-2.86916
		c0.41858-0.35865,1.19556-0.35865,1.55421,0.05994l4.66263,4.96109c0.41833,0.41858,0.35865,1.19581-0.05969,1.6144
		C37.14426,65.14684,32.0036,67,26.68337,67C14.72797,67,5.104,57.49541,5.104,45.54001S14.72797,23.96064,26.68337,23.96064z"/>
	<path class="st0" d="M54.95911,25.69417c0-0.59791,0.47803-1.13587,1.13563-1.13587h7.11345
		c0.59766,0,1.13587,0.53797,1.13587,1.13587V57.6148h14.22665c0.6576,0,1.13588,0.53796,1.13588,1.13587v6.51555
		c0,0.59791-0.47828,1.13587-1.13588,1.13587H56.09474c-0.6576,0-1.13563-0.53796-1.13563-1.13587V25.69417z"/>
	<path class="st0" d="M155.56519,24.91694c0.05995-0.53797,0.59792-0.9563,1.07594-0.9563h0.95654
		c0.29871,0,0.83667,0.23901,1.01599,0.59766l13.86827,25.82366h0.11987l13.86827-25.82366
		c0.17932-0.35864,0.71729-0.59766,1.01599-0.59766h0.95654c0.47803,0,1.01601,0.41833,1.07594,0.9563l6.75481,40.16996
		c0.11938,0.77723-0.41858,1.31519-1.13588,1.31519h-7.05351c-0.53796,0-1.07593-0.47803-1.13586-0.95655l-2.68983-18.47095
		h-0.11989l-10.04256,19.36757C173.9165,66.7008,173.37854,67,173.07983,67h-1.07593c-0.35864,0-0.83667-0.2992-1.01649-0.65784
		l-10.10199-19.36757h-0.11938l-2.63039,18.47095c-0.05995,0.47852-0.53798,0.95655-1.13588,0.95655h-7.05351
		c-0.71729,0-1.25526-0.53796-1.13588-1.31519L155.56519,24.91694z"/>
	<path class="st0" d="M210.50226,25.69417c0-0.59791,0.47803-1.13587,1.13588-1.13587h13.9277
		c7.05351,0,12.85226,4.84195,12.85226,11.11848c0,4.60294-4.12491,7.95037-6.93413,9.44489
		c3.16786,1.31495,8.01006,4.2443,8.01006,9.74335c0,6.69537-5.91814,11.53707-13.03159,11.53707h-14.82431
		c-0.65785,0-1.13588-0.53796-1.13588-1.13587V25.69417z M224.4899,41.53498c2.27176,0,4.18436-1.91285,4.18436-4.30399
		c0-2.39113-1.9126-4.06472-4.18436-4.06472h-4.66237v8.36871H224.4899z M225.26714,57.85406
		c2.33119,0,4.30374-1.91311,4.30374-4.36368c0-2.39113-2.57047-4.18435-4.90164-4.18435h-4.84171v8.54803H225.26714z"/>
	<path class="st0" d="M139.44037,66.69959h-7.84065c-0.52954,0-0.9588-0.42927-0.9588-0.95881V24.75073
		c0-0.56666,0.45935-1.02602,1.02602-1.02602h0.72046c4.41196,0,7.98854,3.57659,7.98854,7.98853v34.05079
		C140.37593,66.28073,139.95706,66.69959,139.44037,66.69959z"/>
	<path class="st0" d="M97.87879,66.69959h-7.84065c-0.52953,0-0.95881-0.42927-0.95881-0.95881V40.4927
		c0-0.56665,0.45937-1.02602,1.02602-1.02602h0.72047c4.41194,0,7.98853,3.57659,7.98853,7.98853v18.30882
		C98.81435,66.28073,98.39548,66.69959,97.87879,66.69959z"/>
	<path class="st0" d="M118.65958,66.69959h-7.84064c-0.52954,0-0.95881-0.42927-0.95881-0.95881V33.9061
		c0-0.56665,0.45937-1.02602,1.02602-1.02602h0.72047c4.41195,0,7.98853,3.57659,7.98853,7.98854v24.89541
		C119.59514,66.28073,119.17628,66.69959,118.65958,66.69959z"/>
	<circle class="st1" cx="93.94685" cy="28.42167" r="7.09533"/>
	
		<ellipse transform="matrix(0.99883 -0.04843 0.04843 0.99883 -0.87579 5.58117)" class="st2" cx="114.72763" cy="20.86222" rx="7.09533" ry="7.09533"/>
	<circle class="st3" cx="135.50842" cy="13.30276" r="7.09533"/>
</g>
</svg>
