<svg xmlns="http://www.w3.org/2000/svg" width="18" height="18" viewBox="0 0 26 26">
  <metadata><?xpacket begin="﻿" id="W5M0MpCehiHzreSzNTczkc9d"?>
<x:xmpmeta xmlns:x="adobe:ns:meta/" x:xmptk="Adobe XMP Core 5.6-c138 79.159824, 2016/09/14-01:09:01        ">
   <rdf:RDF xmlns:rdf="http://www.w3.org/1999/02/22-rdf-syntax-ns#">
      <rdf:Description rdf:about=""/>
   </rdf:RDF>
</x:xmpmeta>





















<?xpacket end="w"?></metadata>
<defs>
    <style>
      .cls-1 {
        fill: #ffcb05;
        fill-rule: evenodd;
      }
    </style>
  </defs>
  <path id="Forma_1" data-name="Forma 1" class="cls-1" d="M22.129,0H3.871A3.931,3.931,0,0,0,0,3.98V22.02A3.931,3.931,0,0,0,3.871,26H22.129A3.931,3.931,0,0,0,26,22.02V3.98A3.931,3.931,0,0,0,22.129,0Zm1.156,20.6a2.144,2.144,0,0,1-2.135,2.148H4.849A2.144,2.144,0,0,1,2.714,20.6V4.853A2.144,2.144,0,0,1,4.849,2.706h16.3a2.144,2.144,0,0,1,2.135,2.148V20.6ZM20.43,13.39V5.652a0.687,0.687,0,1,0-1.373,0V13.39a2.484,2.484,0,0,0,0,4.759v2.3a0.687,0.687,0,1,0,1.373,0v-2.3A2.484,2.484,0,0,0,20.43,13.39Zm-0.686,3.473a1.094,1.094,0,1,1,1.083-1.094A1.09,1.09,0,0,1,19.744,16.864ZM12.993,4.338A2.482,2.482,0,0,0,12.306,9.2V20.447a0.687,0.687,0,1,0,1.373,0V9.2A2.482,2.482,0,0,0,12.993,4.338Zm0,3.574a1.094,1.094,0,1,1,1.083-1.094A1.09,1.09,0,0,1,12.993,7.911ZM6.928,10.671V5.652a0.687,0.687,0,1,0-1.373,0v5.018a2.484,2.484,0,0,0,0,4.759v5.018a0.687,0.687,0,1,0,1.373,0V15.429A2.484,2.484,0,0,0,6.928,10.671ZM6.242,14.144A1.094,1.094,0,1,1,7.325,13.05,1.09,1.09,0,0,1,6.242,14.144Z"/>
</svg>
