<svg xmlns="http://www.w3.org/2000/svg" width="23" height="30" viewBox="0 0 23 30">
  <metadata><?xpacket begin="﻿" id="W5M0MpCehiHzreSzNTczkc9d"?>
<x:xmpmeta xmlns:x="adobe:ns:meta/" x:xmptk="Adobe XMP Core 5.6-c138 79.159824, 2016/09/14-01:09:01        ">
   <rdf:RDF xmlns:rdf="http://www.w3.org/1999/02/22-rdf-syntax-ns#">
      <rdf:Description rdf:about=""/>
   </rdf:RDF>
</x:xmpmeta>
                                                                                                    
                                                                                                    
                                                                                                    
                                                                                                    
                                                                                                    
                                                                                                    
                                                                                                    
                                                                                                    
                                                                                                    
                                                                                                    
                                                                                                    
                                                                                                    
                                                                                                    
                                                                                                    
                                                                                                    
                                                                                                    
                                                                                                    
                                                                                                    
                                                                                                    
                                                                                                    
                           
<?xpacket end="w"?></metadata>
<defs>
    <style>
      .cls-1 {
        fill: #ffcb05;
        fill-rule: evenodd;
      }
    </style>
  </defs>
  <path id="Forma_1" data-name="Forma 1" class="cls-1" d="M9.531,16.9a1.017,1.017,0,0,1-.175.3,0.747,0.747,0,0,1-.262.2,0.9,0.9,0,0,1-.378.072A0.928,0.928,0,0,1,8.2,17.344a1,1,0,0,1-.33-0.36,1.752,1.752,0,0,1-.179-0.5,2.925,2.925,0,0,1,0-1.135,1.724,1.724,0,0,1,.179-0.5,1,1,0,0,1,.33-0.36,0.916,0.916,0,0,1,.517-0.135,0.848,0.848,0,0,1,.441.1,0.98,0.98,0,0,1,.274.241,0.832,0.832,0,0,1,.143.275c0.027,0.093.045,0.166,0.056,0.22h1.7a2.514,2.514,0,0,0-.752-1.666,2.618,2.618,0,0,0-1.816-.6,3.1,3.1,0,0,0-1.189.216,2.6,2.6,0,0,0-.906.607,2.659,2.659,0,0,0-.58.943,3.513,3.513,0,0,0-.2,1.222,3.577,3.577,0,0,0,.191,1.179A2.615,2.615,0,0,0,7.539,18.67a3.074,3.074,0,0,0,1.225.232,2.782,2.782,0,0,0,1.105-.209,2.5,2.5,0,0,0,.814-0.547,2.362,2.362,0,0,0,.5-0.763,2.269,2.269,0,0,0,.172-0.854H9.638A2.137,2.137,0,0,1,9.531,16.9Zm4.679-.383H14.195l-0.93-3.461H11.5l1.694,5.705h1.955l1.774-5.705h-1.8ZM18.722,0H0V30H22.994V4.161Zm2.284,28H1.992V2H17.7V5.166h3.307V28h0Z"/>
</svg>
