<svg xmlns="http://www.w3.org/2000/svg" width="25" height="25" viewBox="0 0 30 30">
  <metadata><?xpacket begin="﻿" id="W5M0MpCehiHzreSzNTczkc9d"?>
<x:xmpmeta xmlns:x="adobe:ns:meta/" x:xmptk="Adobe XMP Core 5.6-c142 79.160924, 2017/07/13-01:06:39        ">
   <rdf:RDF xmlns:rdf="http://www.w3.org/1999/02/22-rdf-syntax-ns#">
      <rdf:Description rdf:about=""/>
   </rdf:RDF>
</x:xmpmeta>





















<?xpacket end="w"?></metadata>
<defs>
    <style>
      .cls-1 {
        fill: #ffcb05;
        fill-rule: evenodd;
      }
    </style>
  </defs>
  <path class="cls-1" d="M30,12.2a7.385,7.385,0,0,1-7.377,7.377H19.661a1.172,1.172,0,1,1,0-2.344h2.961a5.034,5.034,0,1,0-1.279-9.9,1.171,1.171,0,0,1-1.421-.8A5.893,5.893,0,0,0,8.4,7.842,1.173,1.173,0,0,1,7.073,8.926a4.174,4.174,0,1,0-.555,8.312h3.82a1.172,1.172,0,1,1,0,2.344H6.518a6.518,6.518,0,0,1-.3-13.03A8.236,8.236,0,0,1,21.8,4.873,7.379,7.379,0,0,1,30,12.2ZM15,22.7a1.172,1.172,0,0,0,1.172-1.172V15.475l0.317,0.317a1.172,1.172,0,0,0,1.657-1.657l-2.317-2.317a1.172,1.172,0,0,0-1.658,0l-2.317,2.317a1.172,1.172,0,0,0,1.657,1.657l0.317-.317v6.054A1.172,1.172,0,0,0,15,22.7Zm6.623,2.627v3.5A1.172,1.172,0,0,1,20.451,30H9.549a1.172,1.172,0,0,1-1.172-1.172v-3.5a1.172,1.172,0,0,1,1.172-1.172h10.9A1.172,1.172,0,0,1,21.623,25.328Z"/>
</svg>
