<svg xmlns="http://www.w3.org/2000/svg" width="25" height="25" viewBox="0 0 33 33">
  <metadata><?xpacket begin="﻿" id="W5M0MpCehiHzreSzNTczkc9d"?>
<x:xmpmeta xmlns:x="adobe:ns:meta/" x:xmptk="Adobe XMP Core 5.6-c142 79.160924, 2017/07/13-01:06:39        ">
   <rdf:RDF xmlns:rdf="http://www.w3.org/1999/02/22-rdf-syntax-ns#">
      <rdf:Description rdf:about=""/>
   </rdf:RDF>
</x:xmpmeta>





















<?xpacket end="w"?></metadata>
<defs>
    <style>
      .cls-1 {
        fill: #ffcb05;
        fill-rule: evenodd;
      }
    </style>
  </defs>
  <path class="cls-1" d="M32.536,10.878L30.891,9.234a1.472,1.472,0,0,0-2.086,0l-0.224.223a13.234,13.234,0,0,0-7.348-2.219H21.206a13.285,13.285,0,0,0-4.734.859l2.885-2.882a2.742,2.742,0,0,0,3.115-.541A2.74,2.74,0,0,0,20.536,0,2.706,2.706,0,0,0,18.6.8a2.739,2.739,0,0,0-.806,1.935,2.771,2.771,0,0,0,.264,1.177L12.863,9.106,12.687,8.93a1.473,1.473,0,0,0-2.086,0L8.935,10.587a1.468,1.468,0,0,0,0,2.083l0.176,0.176L3.916,18.035A2.742,2.742,0,0,0,.8,18.577a2.74,2.74,0,0,0,1.937,4.674,2.705,2.705,0,0,0,1.937-.8,2.735,2.735,0,0,0,.535-3.112L8.1,16.452a13.365,13.365,0,0,0,1.361,12.1l-0.278.277a1.481,1.481,0,0,0,0,2.09l1.653,1.651a1.473,1.473,0,0,0,2.086,0l1.652-1.651a1.481,1.481,0,0,0,0-2.09l-1.652-1.65a1.472,1.472,0,0,0-2.086,0l-0.047.047A11.543,11.543,0,0,1,11.1,14.646a1.425,1.425,0,0,0,.535.1,1.471,1.471,0,0,0,1.043-.433l1.652-1.651a1.477,1.477,0,0,0,.332-1.576,11.563,11.563,0,0,1,12.59-.318l-0.1.1a1.481,1.481,0,0,0,0,2.09l1.652,1.65a1.472,1.472,0,0,0,2.086,0l1.653-1.65A1.467,1.467,0,0,0,32.536,10.878Zm-19.511,19-1.158,1.157-1.158-1.157,1.158-1.157ZM19.879,2.1a0.906,0.906,0,1,1,0,1.286h0a0.906,0.906,0,0,1-.264-0.643A0.917,0.917,0,0,1,19.879,2.1ZM3.381,21.161a0.907,0.907,0,1,1,0-1.285A0.906,0.906,0,0,1,3.381,21.161Zm8.249-8.375-1.158-1.157,1.158-1.157,0.576,0.575h0l0.576,0.575Zm18.211,0.291L28.683,11.92l1.158-1.157L31,11.92Z"/>
</svg>
