<svg xmlns="http://www.w3.org/2000/svg" width="25" height="21" viewBox="0 0 38 41">
  <metadata><?xpacket begin="﻿" id="W5M0MpCehiHzreSzNTczkc9d"?>
<x:xmpmeta xmlns:x="adobe:ns:meta/" x:xmptk="Adobe XMP Core 5.6-c138 79.159824, 2016/09/14-01:09:01        ">
   <rdf:RDF xmlns:rdf="http://www.w3.org/1999/02/22-rdf-syntax-ns#">
      <rdf:Description rdf:about=""/>
   </rdf:RDF>
</x:xmpmeta>





















<?xpacket end="w"?></metadata>
<defs>
    <style>
      .cls-1 {
        fill: #ffcb05;
        fill-rule: evenodd;
      }
    </style>
  </defs>
  <path id="Forma_1" data-name="Forma 1" class="cls-1" d="M28.74,15.272c-0.636,2.4-2.12,2.934-2.912,3.04a15.834,15.834,0,0,1-2.633,3.926,5.261,5.261,0,0,1-1.656.993,7.385,7.385,0,0,1-5.37,0,5.256,5.256,0,0,1-1.656-.993,15.836,15.836,0,0,1-2.633-3.926c-0.792-.106-2.276-0.636-2.912-3.04a3.788,3.788,0,0,1,.259-3.116,2.443,2.443,0,0,1,.756-0.74c0-.256.012-0.578,0.042-0.943a4.379,4.379,0,0,1-.311-4.2,3.784,3.784,0,0,1,3.563-2.725,6.136,6.136,0,0,1,1.909-2.068A7.42,7.42,0,0,1,19.415.227,9.608,9.608,0,0,1,25.061,2.18c2.843,2.071,2.6,6.666,2.53,7.5a12.306,12.306,0,0,1,.133,1.735,2.444,2.444,0,0,1,.756.74A3.788,3.788,0,0,1,28.74,15.272Zm8.315,17.906V39.7a0.929,0.929,0,0,1-.934.924H1.587A0.93,0.93,0,0,1,.653,39.7V33.178a6.467,6.467,0,0,1,4.13-6.032l8.171-3.231a0.942,0.942,0,0,1,.729.015,0.927,0.927,0,0,1,.5.529l2.054,5.615,0.407-1.156-0.647-1.564a0.915,0.915,0,0,1,.089-0.865,0.937,0.937,0,0,1,.776-0.409h3.991a0.937,0.937,0,0,1,.776.409,0.915,0.915,0,0,1,.089.865l-0.647,1.564,0.407,1.156,2.054-5.615a0.926,0.926,0,0,1,.5-0.529,0.942,0.942,0,0,1,.729-0.015l8.171,3.231A6.467,6.467,0,0,1,37.054,33.178Zm-4.975.709a0.93,0.93,0,0,0-.935-0.924H24.871a0.93,0.93,0,0,0-.934.924v2.881a0.929,0.929,0,0,0,.934.924h6.274a0.929,0.929,0,0,0,.935-0.924V33.887h0Z"/>
</svg>
