<svg xmlns="http://www.w3.org/2000/svg" width="22" height="33" viewBox="0 0 22 33">
  <metadata><?xpacket begin="﻿" id="W5M0MpCehiHzreSzNTczkc9d"?>
<x:xmpmeta xmlns:x="adobe:ns:meta/" x:xmptk="Adobe XMP Core 5.6-c142 79.160924, 2017/07/13-01:06:39        ">
   <rdf:RDF xmlns:rdf="http://www.w3.org/1999/02/22-rdf-syntax-ns#">
      <rdf:Description rdf:about=""/>
   </rdf:RDF>
</x:xmpmeta>
                                                                                                    
                                                                                                    
                                                                                                    
                                                                                                    
                                                                                                    
                                                                                                    
                                                                                                    
                                                                                                    
                                                                                                    
                                                                                                    
                                                                                                    
                                                                                                    
                                                                                                    
                                                                                                    
                                                                                                    
                                                                                                    
                                                                                                    
                                                                                                    
                                                                                                    
                                                                                                    
                           
<?xpacket end="w"?></metadata>
<defs>
    <style>
      .cls-1 {
        fill: #282827;
        fill-rule: evenodd;
      }
    </style>
  </defs>
  <path class="cls-1" d="M16.441,24.285v3.189A5.648,5.648,0,0,1,10.69,33a5.648,5.648,0,0,1-5.751-5.525v-3.19A10.063,10.063,0,0,1,.155,15.8,10.347,10.347,0,0,1,10.69,5.68,10.347,10.347,0,0,1,21.225,15.8,10.063,10.063,0,0,1,16.441,24.285ZM6.97,27.475a3.653,3.653,0,0,0,3.72,3.574,3.653,3.653,0,0,0,3.72-3.574V26.659H6.97v0.816ZM10.69,7.632a8.352,8.352,0,0,0-8.5,8.171,8.149,8.149,0,0,0,4.275,7.091,0.968,0.968,0,0,1,.51.845v0.969h2.7V19.662A3.182,3.182,0,0,1,7.4,16.656a1.016,1.016,0,0,1,2.031,0,1.26,1.26,0,0,0,2.518,0,1.016,1.016,0,0,1,2.031,0,3.182,3.182,0,0,1-2.275,3.006v5.045h2.7V23.74a0.969,0.969,0,0,1,.51-0.846A8.149,8.149,0,0,0,19.195,15.8,8.352,8.352,0,0,0,10.69,7.632Zm4.756-4a1.016,1.016,0,0,1-.95.631A1.043,1.043,0,0,1,14.137,4.2a0.965,0.965,0,0,1-.591-1.257l0.63-1.6A1.028,1.028,0,0,1,15.486.768a0.965,0.965,0,0,1,.591,1.258Zm-4.756.035a1,1,0,0,1-1.015-.976V0.975a1.016,1.016,0,0,1,2.031,0V2.688A1,1,0,0,1,10.69,3.664ZM7.243,4.2a1.043,1.043,0,0,1-.359.063,1.016,1.016,0,0,1-.95-0.631L5.3,2.026A0.965,0.965,0,0,1,5.894.768,1.029,1.029,0,0,1,7.2,1.336l0.63,1.6A0.965,0.965,0,0,1,7.243,4.2Z"/>
</svg>
