<svg xmlns="http://www.w3.org/2000/svg" width="37" height="33" viewBox="0 0 37 33">
  <metadata><?xpacket begin="﻿" id="W5M0MpCehiHzreSzNTczkc9d"?>
<x:xmpmeta xmlns:x="adobe:ns:meta/" x:xmptk="Adobe XMP Core 5.6-c142 79.160924, 2017/07/13-01:06:39        ">
   <rdf:RDF xmlns:rdf="http://www.w3.org/1999/02/22-rdf-syntax-ns#">
      <rdf:Description rdf:about=""/>
   </rdf:RDF>
</x:xmpmeta>
                                                                                                    
                                                                                                    
                                                                                                    
                                                                                                    
                                                                                                    
                                                                                                    
                                                                                                    
                                                                                                    
                                                                                                    
                                                                                                    
                                                                                                    
                                                                                                    
                                                                                                    
                                                                                                    
                                                                                                    
                                                                                                    
                                                                                                    
                                                                                                    
                                                                                                    
                                                                                                    
                           
<?xpacket end="w"?></metadata>
<defs>
    <style>
      .cls-1 {
        fill: #282827;
        fill-rule: evenodd;
      }
    </style>
  </defs>
  <path class="cls-1" d="M36.5,17.7l-2.091,3.614a0.806,0.806,0,0,1-1.394,0L30.922,17.7a0.8,0.8,0,0,1,.7-1.2h0.63A13.615,13.615,0,0,0,18.634,2.915a1.458,1.458,0,1,1,0-2.916A16.537,16.537,0,0,1,35.171,16.5H35.8A0.8,0.8,0,0,1,36.5,17.7Zm-7.225-1.2A10.639,10.639,0,1,1,18.634,5.884,10.638,10.638,0,0,1,29.273,16.5Zm-18.355,0a7.717,7.717,0,1,0,7.717-7.7A7.717,7.717,0,0,0,10.918,16.5Zm3.717,2.137v-0.42a0.843,0.843,0,0,0-.842-0.841V15.693a0.842,0.842,0,0,0,.842-0.841v-0.42a2.527,2.527,0,0,1,2.526-2.522v1.681a0.842,0.842,0,0,0-.842.841v0.42a2.509,2.509,0,0,1-.645,1.681,2.512,2.512,0,0,1,.645,1.682v0.42a0.843,0.843,0,0,0,.842.841v1.681A2.527,2.527,0,0,1,14.635,18.636Zm8-4.2v0.42a0.842,0.842,0,0,0,.842.841v1.681a0.843,0.843,0,0,0-.842.841v0.42a2.527,2.527,0,0,1-2.526,2.522V19.477a0.843,0.843,0,0,0,.842-0.841v-0.42a2.512,2.512,0,0,1,.645-1.682,2.509,2.509,0,0,1-.645-1.681v-0.42a0.842,0.842,0,0,0-.842-0.841V11.91A2.527,2.527,0,0,1,22.634,14.432ZM5.649,16.5H5.02A13.615,13.615,0,0,0,18.634,30.083a1.458,1.458,0,1,1,0,2.915A16.537,16.537,0,0,1,2.1,16.5H1.467a0.8,0.8,0,0,1-.7-1.2l2.091-3.614a0.805,0.805,0,0,1,1.394,0l2.091,3.614A0.8,0.8,0,0,1,5.649,16.5Z"/>
</svg>
