<svg xmlns="http://www.w3.org/2000/svg" width="17" height="25" viewBox="0 0 21 29">
  <metadata><?xpacket begin="﻿" id="W5M0MpCehiHzreSzNTczkc9d"?>
<x:xmpmeta xmlns:x="adobe:ns:meta/" x:xmptk="Adobe XMP Core 5.6-c142 79.160924, 2017/07/13-01:06:39        ">
   <rdf:RDF xmlns:rdf="http://www.w3.org/1999/02/22-rdf-syntax-ns#">
      <rdf:Description rdf:about=""/>
   </rdf:RDF>
</x:xmpmeta>





















<?xpacket end="w"?></metadata>
<defs>
    <style>
      .cls-1 {
        fill: #ffcb05;
        fill-rule: evenodd;
      }
    </style>
  </defs>
  <path class="cls-1" d="M20.5,8.216H20a0.484,0.484,0,1,1,0-.966h0.5A0.484,0.484,0,1,1,20.5,8.216Zm-6,12.732v0.308a0.5,0.5,0,0,1-.51.493H7.01a0.5,0.5,0,0,1-.51-0.493v-0.31a9.108,9.108,0,0,0-2.184-5.892A7.528,7.528,0,0,1,3.192,7.01a8,8,0,0,1,6.93-4.584h0a8.049,8.049,0,0,1,7.492,4.193,7.524,7.524,0,0,1-.843,8.329A9.437,9.437,0,0,0,14.5,20.949ZM12.534,3.671A7.124,7.124,0,0,0,4.68,6.386,6.588,6.588,0,0,0,5.09,14.44a10.078,10.078,0,0,1,2.391,5.884A0.511,0.511,0,0,0,8.5,20.29V12.576a0.5,0.5,0,0,1,.51-0.493h2.98a0.5,0.5,0,0,1,.51.493V20.29a0.5,0.5,0,0,0,.51.493h0.005a0.5,0.5,0,0,0,.508-0.454,10.419,10.419,0,0,1,2.466-5.982,6.551,6.551,0,0,0,1.511-4.2A6.8,6.8,0,0,0,12.534,3.671Zm0.947,2.052a0.5,0.5,0,0,1-.643.155,5.1,5.1,0,0,0-.547-0.241,0.47,0.47,0,0,1-.3-0.57L12,5.043a0.491,0.491,0,0,1,.643-0.312,6.047,6.047,0,0,1,.677.3A0.463,0.463,0,0,1,13.5,5.7Zm-3.216-.4h0a4.95,4.95,0,0,0-4.741,4.4,0.246,0.246,0,0,1-.257.219l-0.5-.019a0.244,0.244,0,0,1-.238-0.261,5.941,5.941,0,0,1,5.691-5.3l0.025,0A0.245,0.245,0,0,1,10.5,4.6V5.082A0.246,0.246,0,0,1,10.265,5.322ZM16.707,2.9A0.512,0.512,0,0,1,16,2.9a0.472,0.472,0,0,1,0-.683l0.293-.283a0.512,0.512,0,0,1,.707,0h0a0.472,0.472,0,0,1,0,.683ZM10.5,1.45A0.492,0.492,0,0,1,10,.966V0.483a0.5,0.5,0,0,1,1,0V0.966A0.492,0.492,0,0,1,10.5,1.45ZM4.293,2.9L4,2.616a0.472,0.472,0,0,1,0-.683,0.512,0.512,0,0,1,.707,0L5,2.216A0.472,0.472,0,0,1,5,2.9,0.512,0.512,0,0,1,4.293,2.9ZM1,8.216H0.5a0.484,0.484,0,1,1,0-.966H1A0.484,0.484,0,1,1,1,8.216Zm6,14.5h7a0.483,0.483,0,1,1,0,.966H7A0.483,0.483,0,1,1,7,22.717ZM7,24.65h7a0.484,0.484,0,1,1,0,.967H7A0.484,0.484,0,1,1,7,24.65ZM6.749,26.583h7.5a0.245,0.245,0,0,1,.249.241v0.485a0.245,0.245,0,0,1-.249.241H13.232a0.249,0.249,0,0,0-.208.109,3.046,3.046,0,0,1-5.047,0,0.249,0.249,0,0,0-.208-0.109H6.749A0.245,0.245,0,0,1,6.5,27.309V26.824A0.245,0.245,0,0,1,6.749,26.583Zm3.66,1.448,0.091,0,0.091,0a0.241,0.241,0,1,0-.017-0.481H10.426A0.241,0.241,0,1,0,10.409,28.031Z"/>
</svg>
