<svg xmlns="http://www.w3.org/2000/svg" width="34" height="33" viewBox="0 0 34 33">
  <metadata><?xpacket begin="﻿" id="W5M0MpCehiHzreSzNTczkc9d"?>
<x:xmpmeta xmlns:x="adobe:ns:meta/" x:xmptk="Adobe XMP Core 5.6-c142 79.160924, 2017/07/13-01:06:39        ">
   <rdf:RDF xmlns:rdf="http://www.w3.org/1999/02/22-rdf-syntax-ns#">
      <rdf:Description rdf:about=""/>
   </rdf:RDF>
</x:xmpmeta>
                                                                                                    
                                                                                                    
                                                                                                    
                                                                                                    
                                                                                                    
                                                                                                    
                                                                                                    
                                                                                                    
                                                                                                    
                                                                                                    
                                                                                                    
                                                                                                    
                                                                                                    
                                                                                                    
                                                                                                    
                                                                                                    
                                                                                                    
                                                                                                    
                                                                                                    
                                                                                                    
                           
<?xpacket end="w"?></metadata>
<defs>
    <style>
      .cls-1 {
        fill: #282827;
        fill-rule: evenodd;
      }
    </style>
  </defs>
  <path class="cls-1" d="M32.481,12.718a1.3,1.3,0,0,0,1.307-1.289V1.288A1.3,1.3,0,0,0,32.481,0H17.058A1.3,1.3,0,0,0,15.75,1.288V10.14H5.459a1.3,1.3,0,0,0-1.307,1.289V26.336L0.6,30.928A1.289,1.289,0,0,0,1.634,33H32.481a1.289,1.289,0,0,0,1.048-2.059l-3.573-4.727V12.718h2.525ZM18.364,2.577H31.174V10.14c-2.7,0-2.639-.025-2.906.056-0.549.165-.5,0.351-3.453,3.192V11.429a1.3,1.3,0,0,0-1.307-1.289H18.364V2.577ZM22.2,12.718V16.5a1.31,1.31,0,0,0,2.231.912l2.91-2.869v10.81H23.254a6.261,6.261,0,0,0-2.727-3.934A4.546,4.546,0,1,0,12.5,18.467a4.457,4.457,0,0,0,1.109,2.94,6.259,6.259,0,0,0-2.743,3.945H6.766V12.719H22.2Zm-7.09,5.748a1.961,1.961,0,1,1,1.948,1.927A1.95,1.95,0,0,1,15.11,18.467Zm5.428,6.885H13.577A3.738,3.738,0,0,1,20.537,25.351Zm-16.26,5.07,1.93-2.492H27.992l1.884,2.492H4.277Z"/>
</svg>
