<svg xmlns="http://www.w3.org/2000/svg" width="15" height="20" viewBox="0 0 10 15">
  <metadata><?xpacket begin="﻿" id="W5M0MpCehiHzreSzNTczkc9d"?>
<x:xmpmeta xmlns:x="adobe:ns:meta/" x:xmptk="Adobe XMP Core 5.6-c138 79.159824, 2016/09/14-01:09:01        ">
   <rdf:RDF xmlns:rdf="http://www.w3.org/1999/02/22-rdf-syntax-ns#">
      <rdf:Description rdf:about=""/>
   </rdf:RDF>
</x:xmpmeta>
                                                                                                    
                                                                                                    
                                                                                                    
                                                                                                    
                                                                                                    
                                                                                                    
                                                                                                    
                                                                                                    
                                                                                                    
                                                                                                    
                                                                                                    
                                                                                                    
                                                                                                    
                                                                                                    
                                                                                                    
                                                                                                    
                                                                                                    
                                                                                                    
                                                                                                    
                                                                                                    
                           
<?xpacket end="w"?></metadata>
<defs>
    <style>
      .cls-1 {
        fill: #ffcb05;
        fill-rule: evenodd;
      }
    </style>
  </defs>
  <path id="Forma_1" data-name="Forma 1" class="cls-1" d="M9.764,3.733a4.763,4.763,0,0,0-.234-0.6A4.873,4.873,0,0,0,4.932,0,4.946,4.946,0,0,0,0,4.653v0.64C0,5.32.009,5.56,0.022,5.68,0.2,7.173,1.343,8.76,2.194,10.253,3.11,11.853,4.061,13.427,5,15c0.581-1.027,1.159-2.067,1.727-3.067,0.155-.294.334-0.587,0.489-0.867,0.1-.186.3-0.373,0.39-0.547C8.525,8.786,10,7.04,10,5.32V4.613A5.427,5.427,0,0,0,9.764,3.733ZM4.973,6.947a1.777,1.777,0,0,1-1.7-1.254,1.8,1.8,0,0,1-.048-0.467V4.813a1.7,1.7,0,0,1,1.8-1.707,1.859,1.859,0,0,1,1.831,1.92A1.905,1.905,0,0,1,4.973,6.947Z"/>
</svg>
