<svg
  xmlns="http://www.w3.org/2000/svg"
  width="16px" height="16px">
  <path fill-rule="evenodd"  fill="rgb(255, 203, 5)"
        d="M13.804,8.083 L12.988,8.083 C12.988,5.422 10.824,3.258 8.163,3.258 L8.163,2.443 C11.273,2.442 13.804,4.973 13.804,8.083 ZM8.163,3.850 L8.162,4.665 C10.048,4.665 11.581,6.198 11.580,8.083 L12.396,8.082 C12.396,5.749 10.497,3.850 8.163,3.850 ZM8.000,0.005 C3.591,0.005 0.005,3.591 0.005,8.000 C0.005,12.409 3.591,15.995 8.000,15.995 C8.272,15.995 8.493,15.774 8.493,15.502 C8.493,15.229 8.272,15.009 8.000,15.009 C4.135,15.009 0.992,11.864 0.992,8.000 C0.992,4.136 4.135,0.991 8.000,0.991 C11.865,0.991 15.009,4.136 15.009,8.000 C15.009,9.615 14.149,11.216 12.919,11.894 C12.472,12.140 11.988,12.261 11.470,12.266 C11.781,12.081 12.050,11.832 12.249,11.517 C12.289,11.458 12.340,11.406 12.366,11.341 C12.526,10.955 12.540,10.517 12.638,10.109 C12.756,9.588 10.357,8.571 10.149,9.221 C10.074,9.461 9.958,10.224 9.807,10.424 C9.672,10.603 9.340,10.518 9.133,10.342 C8.586,9.876 7.975,9.191 7.439,8.650 L7.440,8.649 C7.427,8.635 7.410,8.619 7.396,8.604 C7.380,8.590 7.365,8.574 7.350,8.559 L7.350,8.560 C6.809,8.024 6.123,7.415 5.658,6.867 C5.482,6.660 5.396,6.328 5.575,6.193 C5.776,6.041 6.538,5.927 6.779,5.851 C7.428,5.643 6.412,3.243 5.890,3.363 C5.483,3.458 5.044,3.473 4.658,3.633 C4.593,3.661 4.542,3.711 4.483,3.751 C3.112,4.619 2.936,6.728 4.273,8.298 C4.782,8.899 5.314,9.480 5.861,10.049 L5.858,10.051 C5.874,10.066 5.889,10.080 5.905,10.094 C5.920,10.110 5.934,10.125 5.948,10.141 L5.951,10.138 C6.519,10.685 7.192,11.492 8.285,12.221 C10.587,13.759 12.355,13.330 13.395,12.759 C15.191,11.769 15.995,9.656 15.995,8.001 C15.995,3.591 12.408,0.005 8.000,0.005 Z"/>
</svg>
