<?xml version="1.0" encoding="utf-8"?>
<!-- Generator: Adobe Illustrator 22.1.0, SVG Export Plug-In . SVG Version: 6.00 Build 0)  -->
<svg version="1.1" id="Layer_1" xmlns="http://www.w3.org/2000/svg" xmlns:xlink="http://www.w3.org/1999/xlink" x="0px" y="0px"
	 viewBox="0 0 254 206" style="enable-background:new 0 0 254 206;" xml:space="preserve">
<style type="text/css">
	.st0{fill:#FFCB05;}
</style>
<g id="Polygon_1">
	<path class="st0" d="M168.1,181.2h-6.5v-2h5.3l0.7-1.3l1.7,1L168.1,181.2z M157.6,181.2h-8v-2h8V181.2z M145.6,181.2h-8v-2h8V181.2
		z M133.6,181.2h-8v-2h8V181.2z M121.6,181.2h-8v-2h8V181.2z M109.6,181.2h-8v-2h8V181.2z M97.6,181.2h-8v-2h8V181.2z M85.6,181.2
		H81l-2.3-3.9l1.7-1l1.7,2.9h3.5V181.2z M171.4,175.4l-1.7-1l4-6.9l1.7,1L171.4,175.4z M76.7,173.8l-4-6.9l1.7-1l4,6.9L76.7,173.8z
		 M177.4,165l-1.7-1l4-6.9l1.7,1L177.4,165z M70.7,163.4l-4-6.9l1.7-1l4,6.9L70.7,163.4z M183.4,154.6l-1.7-1l4-6.9l1.7,1
		L183.4,154.6z M64.7,153l-4-6.9l1.7-1l4,6.9L64.7,153z M189.4,144.2l-1.7-1l4-6.9l1.7,1L189.4,144.2z M58.7,142.6l-4-6.9l1.7-1
		l4,6.9L58.7,142.6z M195.4,133.8l-1.7-1l4-6.9l1.7,1L195.4,133.8z M52.7,132.2l-4-6.9l1.7-1l4,6.9L52.7,132.2z M201.4,123.4l-1.7-1
		l4-6.9l1.7,1L201.4,123.4z M46.7,121.8l-4-6.9l1.7-1l4,6.9L46.7,121.8z M207.4,113l-1.7-1l4-6.9l0.6,0.4l1-0.6l0.4,0.7L207.4,113z
		 M40.7,111.4l-3.3-5.8l1.2-2.1l1.7,1l-0.7,1.1l2.8,4.8L40.7,111.4z M207.5,102.4l-4-6.9l1.7-1l4,6.9L207.5,102.4z M42.3,101l-1.7-1
		l4-6.9l1.7,1 M201.5,92l-4-6.9l1.7-1l4,6.9L201.5,92z M50.6,82.7l1.7,1l-4,6.9l-1.7-1 M195.5,81.6l-4-6.9l1.7-1l4,6.9L195.5,81.6z
		 M56.6,72.3l1.7,1l-4,6.9l-1.7-1 M189.5,71.2l-4-6.9l1.7-1l4,6.9L189.5,71.2z M60.3,69.8l-1.7-1l4-6.9l1.7,1 M183.5,60.8l-4-6.9
		l1.7-1l4,6.9L183.5,60.8z M66.3,59.4l-1.7-1l4-6.9l1.7,1 M177.5,50.4l-4-6.9l1.7-1l4,6.9L177.5,50.4z M72.3,49l-1.7-1l4-6.9l1.7,1
		 M171.5,40l-4-6.9l1.7-1l4,6.9L171.5,40z M78.3,38.6l-1.7-1l4-6.9l1.7,1 M165.3,32h-8v-2h8V32z M153.3,32h-8v-2h8V32z M141.3,32h-8
		v-2h8V32z M129.3,32h-8v-2h8V32z M117.3,32h-8v-2h8V32z M105.3,32h-8v-2h8V32z M93.3,32h-8v-2h8V32z"/>
</g>
</svg>
