<svg xmlns="http://www.w3.org/2000/svg" width="40" height="25" viewBox="0 0 60 32">
  <metadata><?xpacket begin="﻿" id="W5M0MpCehiHzreSzNTczkc9d"?>
<x:xmpmeta xmlns:x="adobe:ns:meta/" x:xmptk="Adobe XMP Core 5.6-c138 79.159824, 2016/09/14-01:09:01        ">
   <rdf:RDF xmlns:rdf="http://www.w3.org/1999/02/22-rdf-syntax-ns#">
      <rdf:Description rdf:about=""/>
   </rdf:RDF>
</x:xmpmeta>





















<?xpacket end="w"?></metadata>
<defs>
    <style>
      .cls-1 {
        fill: #ffcb05;
        fill-rule: evenodd;
      }
    </style>
  </defs>
  <path id="Ellipse_5_copy_3" data-name="Ellipse 5 copy 3" class="cls-1" d="M49.867,16.2L36.6,10.521l13.267-5V16.2Zm9.36,9.881a5.839,5.839,0,0,1-11.246,2.158H35.246a5.848,5.848,0,0,1-10.826,0H11.914a5.792,5.792,0,1,1,0-4.316H24.42a5.848,5.848,0,0,1,10.826,0H47.985a5.828,5.828,0,0,1,4.38-3.542V4.794a2.059,2.059,0,1,1,2.059,0V20.381A5.8,5.8,0,0,1,59.227,26.081Z"/>
</svg>
