<svg xmlns="http://www.w3.org/2000/svg" width="20" height="20" viewBox="0 0 27 28">
  <metadata><?xpacket begin="﻿" id="W5M0MpCehiHzreSzNTczkc9d"?>
<x:xmpmeta xmlns:x="adobe:ns:meta/" x:xmptk="Adobe XMP Core 5.6-c142 79.160924, 2017/07/13-01:06:39        ">
   <rdf:RDF xmlns:rdf="http://www.w3.org/1999/02/22-rdf-syntax-ns#">
      <rdf:Description rdf:about=""/>
   </rdf:RDF>
</x:xmpmeta>





















<?xpacket end="w"?></metadata>
<defs>
    <style>
      .cls-1 {
        fill: #ffcb05;
        fill-rule: evenodd;
      }
    </style>
  </defs>
  <path class="cls-1" d="M25.826,22.75H1.174A1.17,1.17,0,0,1,0,21.583v-3.5a1.17,1.17,0,0,1,1.174-1.167H25.826A1.17,1.17,0,0,1,27,18.083v3.5A1.17,1.17,0,0,1,25.826,22.75Zm0-4.667H1.174v3.5H4.109v-1.75H5.283v1.75H7.044V19.25H8.218v2.333H9.978v-1.75h1.174v1.75h1.761V19.25h1.174v2.333h1.761v-1.75h1.174v1.75h1.761V19.25h1.174v2.333h1.761v-1.75h1.174v1.75h2.935v-3.5Zm0.587-2.333H2.348a0.592,0.592,0,0,1-.326-0.1L0.262,14.485a0.582,0.582,0,0,1,0-.971l1.761-1.167a0.6,0.6,0,0,1,.326-0.1h21.13V11.666H13.5V10.5H24.065a0.585,0.585,0,0,1,.587.584V12.25h1.761a0.585,0.585,0,0,1,.587.583v2.333A0.585,0.585,0,0,1,26.413,15.75Zm-0.587-2.333H22.891v1.167h2.935V13.416ZM8.218,7V5.833H9.392V7H8.218ZM5.87,7V5.833H7.044V7H5.87Zm0-3.5h5.869V4.666H5.87V3.5ZM23.478,5.491l-3.522-3.5V4.083a0.585,0.585,0,0,0,.587.583h1.174V5.833H20.544a1.755,1.755,0,0,1-1.761-1.75V1.166H4.109a0.585,0.585,0,0,0-.587.584V10.5H2.348V1.75A1.756,1.756,0,0,1,4.109,0H19.37a0.59,0.59,0,0,1,.415.171l4.7,4.667a0.58,0.58,0,0,1,.172.412v3.5H23.478V5.491ZM3.522,26.25a0.585,0.585,0,0,0,.587.584H22.891a0.585,0.585,0,0,0,.587-0.584V24.5h1.174v1.75A1.756,1.756,0,0,1,22.891,28H4.109a1.756,1.756,0,0,1-1.761-1.75V24.5H3.522v1.75Z"/>
</svg>
