<svg xmlns="http://www.w3.org/2000/svg" width="18" height="20" viewBox="0 0 26 26">
  <metadata><?xpacket begin="﻿" id="W5M0MpCehiHzreSzNTczkc9d"?>
<x:xmpmeta xmlns:x="adobe:ns:meta/" x:xmptk="Adobe XMP Core 5.6-c142 79.160924, 2017/07/13-01:06:39        ">
   <rdf:RDF xmlns:rdf="http://www.w3.org/1999/02/22-rdf-syntax-ns#">
      <rdf:Description rdf:about=""/>
   </rdf:RDF>
</x:xmpmeta>





















<?xpacket end="w"?></metadata>
<defs>
    <style>
      .cls-1 {
        fill: #ffcb05;
        fill-rule: evenodd;
      }
    </style>
  </defs>
  <path id="Forma_1" data-name="Forma 1" class="cls-1" d="M1.625,22.75V3.25A1.627,1.627,0,0,1,3.25,1.625H19.5A1.626,1.626,0,0,1,21.125,3.25V12.8l1.625-1.625V3.25A3.25,3.25,0,0,0,19.5,0H3.25A3.25,3.25,0,0,0,0,3.25v19.5A3.25,3.25,0,0,0,3.25,26h8.938V24.375H3.25A1.627,1.627,0,0,1,1.625,22.75ZM17.875,4.875h-13V6.5h13V4.875Zm0,3.25h-13V9.75h13V8.125Zm0,3.25h-13V13h13V11.375Zm-13,4.875h6.5V14.625h-6.5V16.25Zm20.649-1.625-1.149-1.149a1.625,1.625,0,0,0-2.3,0L15.1,20.452a5.8,5.8,0,0,0-1.289,1.961L13,26l3.587-.813A19.777,19.777,0,0,0,18.548,23.9l6.976-6.976A1.624,1.624,0,0,0,25.524,14.625Zm-7.549,8.7a8.136,8.136,0,0,1-.8.55l-2.105-2.1a7.222,7.222,0,0,1,.6-0.741l5.253-5.253,2.3,2.3Z"/>
</svg>
