<svg xmlns="http://www.w3.org/2000/svg" width="35" height="22" viewBox="0 0 52 35">
  <metadata><?xpacket begin="﻿" id="W5M0MpCehiHzreSzNTczkc9d"?>
<x:xmpmeta xmlns:x="adobe:ns:meta/" x:xmptk="Adobe XMP Core 5.6-c138 79.159824, 2016/09/14-01:09:01        ">
   <rdf:RDF xmlns:rdf="http://www.w3.org/1999/02/22-rdf-syntax-ns#">
      <rdf:Description rdf:about=""/>
   </rdf:RDF>
</x:xmpmeta>





















<?xpacket end="w"?></metadata>
<defs>
    <style>
      .cls-1 {
        fill: #ffcb05;
        fill-rule: evenodd;
      }
    </style>
  </defs>
  <path id="Forma_1" data-name="Forma 1" class="cls-1" d="M31.466,23.135L26.1,34.055l-5.368-10.92H0.775V-0.006H51.42v23.14H31.466ZM48.453,3.012H3.742v17.1H22.563l3.534,7.19,3.534-7.19H48.453V3.012Zm-19.3,13.135L26.1,14.512l-3.057,1.634,0.584-3.462-2.473-2.452,3.418-.5L26.1,6.578l1.529,3.15,3.417,0.5-2.473,2.452Zm9.263-6.418,1.528-3.15,1.528,3.15,3.417,0.5-2.473,2.452L43,16.147l-3.057-1.634-3.057,1.634,0.584-3.462L35,10.233ZM15.306,16.147l-3.057-1.634L9.193,16.147l0.584-3.462L7.3,10.233l3.417-.5,1.528-3.15,1.528,3.15,3.418,0.5-2.473,2.452Z"/>
</svg>
