<svg xmlns="http://www.w3.org/2000/svg" width="22" height="22" viewBox="0 0 30 30">
  <metadata><?xpacket begin="﻿" id="W5M0MpCehiHzreSzNTczkc9d"?>
<x:xmpmeta xmlns:x="adobe:ns:meta/" x:xmptk="Adobe XMP Core 5.6-c142 79.160924, 2017/07/13-01:06:39        ">
   <rdf:RDF xmlns:rdf="http://www.w3.org/1999/02/22-rdf-syntax-ns#">
      <rdf:Description rdf:about=""/>
   </rdf:RDF>
</x:xmpmeta>





















<?xpacket end="w"?></metadata>
<defs>
    <style>
      .cls-1 {
        fill: #ffcb05;
        fill-rule: evenodd;
      }
    </style>
  </defs>
  <path class="cls-1" d="M29.121,19.394H26.484V16.758a0.879,0.879,0,0,0-.879-0.879H15.879V14.121h2.637a0.879,0.879,0,0,0,0-1.758H15.879V10.605h6.152a0.878,0.878,0,0,0,.879-0.879V0.879A0.879,0.879,0,0,0,22.031,0H7.969A0.879,0.879,0,0,0,7.09.879V9.726a0.878,0.878,0,0,0,.879.879h6.152v1.758H11.484a0.879,0.879,0,0,0,0,1.758h2.637v1.757H4.395a0.879,0.879,0,0,0-.879.879v2.637H0.879A0.879,0.879,0,0,0,0,20.273v8.848A0.879,0.879,0,0,0,.879,30H7.91a0.879,0.879,0,0,0,.879-0.879V20.273a0.879,0.879,0,0,0-.879-0.879H5.273V17.637h8.848v1.758H11.484a0.879,0.879,0,0,0-.879.879v8.848a0.879,0.879,0,0,0,.879.879h7.031a0.879,0.879,0,0,0,.879-0.879V20.273a0.879,0.879,0,0,0-.879-0.879H15.879V17.637h8.848v1.758H22.09a0.879,0.879,0,0,0-.879.879v8.848A0.879,0.879,0,0,0,22.09,30h7.031A0.879,0.879,0,0,0,30,29.121V20.273A0.879,0.879,0,0,0,29.121,19.394ZM4.395,26.484a0.879,0.879,0,1,1,.879-0.879A0.879,0.879,0,0,1,4.395,26.484Zm10.605,0a0.879,0.879,0,1,1,.879-0.879A0.879,0.879,0,0,1,15,26.484Zm10.606,0a0.879,0.879,0,1,1,.879-0.879A0.879,0.879,0,0,1,25.606,26.484Z"/>
</svg>
