<svg xmlns="http://www.w3.org/2000/svg" xmlns:xlink="http://www.w3.org/1999/xlink" version="1.1" id="Objects" x="0px" y="0px" viewBox="0 0 280 281" style="enable-background:new 0 0 280 281;" height="250" width="250"  xml:space="preserve">
<style type="text/css">
	.st0{fill:#BA9620;}
	.st1{fill:#D1A16B;}
	.st2{fill:#F5C289;}
	.st3{fill:#FFFFFF;}
	.st4{fill:#FFCB05;}
	.st5{fill:#E3AF74;}
</style>
<g>
	<g>

			<ellipse transform="matrix(0.2285 -0.9736 0.9736 0.2285 -30.9992 243.8838)" class="st0" cx="138.4" cy="141.5" rx="132.3" ry="132.3"/>
		<g>
			<polygon class="st1" points="190.3,157.9 132.8,192 96,162.3 151.5,125.2 173.8,120.1    "/>
			<polygon class="st2" points="83.4,162.3 142.6,200.3 179.6,160.1 140.6,117.6 101.8,117.6    "/>
			<path class="st2" d="M154.3,195.3c0,3.8-3.1,6.9-6.9,6.9c-3.8,0-6.9-3.1-6.9-6.9c0-3.8,3.1-6.9,6.9-6.9     C151.1,188.4,154.3,191.5,154.3,195.3z"/>
			<path class="st2" d="M166,187.8c0,4.3-3.5,7.8-7.8,7.8c-4.3,0-7.8-3.5-7.8-7.8c0-4.3,3.5-7.8,7.8-7.8     C162.5,180,166,183.4,166,187.8z"/>
			<path class="st2" d="M182.8,166.2c0,4.3-3.5,7.8-7.8,7.8s-7.8-3.5-7.8-7.8c0-4.3,3.5-7.8,7.8-7.8S182.8,161.9,182.8,166.2z"/>
			<path class="st2" d="M176.1,178.4c0,4.3-3.5,7.8-7.8,7.8s-7.8-3.5-7.8-7.8s3.5-7.8,7.8-7.8S176.1,174.1,176.1,178.4z"/>

				<rect x="57.5" y="129.4" transform="matrix(0.3681 -0.9298 0.9298 0.3681 -73.8299 166.1402)" class="st3" width="55.7" height="16.1"/>
			<path class="st4" d="M69.1,170.6L6,145.6c0,0-0.9-14.1,3.2-33.1c4.3-19.8,14.7-37.4,14.7-37.4l71.8,28.4L69.1,170.6z"/>
			<path class="st1" d="M171,115.7l-28.1-5.9L123,120.1l-11.1,21c0,0,9.8,8,15.7,0c5.9-8,6.3-9.6,6.3-9.6l7.6-1.5     c0,0,6.8,14.7,23.4,14.7c12.1,0,16.3-7.8,16.3-7.8L171,115.7z"/>
			<path class="st1" d="M88.7,170c0,0,5.1-8,8.3-6.9c3.2,1.1,7.6,5.7,7,8.6c-0.6,3-3.9,7.9-6.2,7.5C95.5,178.7,87.2,173.1,88.7,170z     "/>
			<path class="st1" d="M98.8,178.1c0,0,11.3-12,14-12.7c2.8-0.8,10.7,1.7,7.9,8.7c-1.5,3.7-8.7,12.4-12.1,12.9     C105.2,187.5,96.5,182.9,98.8,178.1z"/>
			<path class="st1" d="M111.9,183.6c0,0-0.1,0.2-0.2,0.5c-0.3,1-0.2,3.5,4.1,6.5c5.7,4,17-6.7,18-11.4c1-4.7-5-11.9-11-6.3"/>
			<path class="st1" d="M122.8,189.7c0,0-0.1,0.2-0.3,0.5c-0.4,1-0.9,3.4,2.8,7.1c4.9,5,17.9-3.4,19.8-7.8c1.9-4.4-2.7-12.6-9.6-8.3     "/>

				<rect x="179.5" y="108.3" transform="matrix(0.9297 -0.3683 0.3683 0.9297 -36.945 78.6272)" class="st3" width="16.1" height="55.7"/>
			<path class="st4" d="M203.8,169.3l66.9-26.5c0,0,1-17.5-4.7-36.5c-5.7-19-14.5-33.5-14.5-33.5l-74.3,29.4L203.8,169.3z"/>
			<path class="st4" d="M270.7,142.8c0,0,0.5-17.4-4.7-36.5c-5.8-21.2-14.5-33.5-14.5-33.5"/>
		</g>
	</g>
	<path class="st5" d="M112.4,140.2c0,0,3,2.3,5.5,1.3s5.6-8.3,5.1-8.9c-0.5-0.6-5.2-2-5.2-2L112.4,140.2z"/>
	<path class="st5" d="M91.5,169.7c0,0,3.6,6.1,6.1,4.9c2.4-1.3,5.3-4.1,3.1-6.4s-3.2-3-4.7-2.4S91.5,169.7,91.5,169.7z"/>
	<path class="st5" d="M109.2,171.5c0,0,3.6,6.1,6.1,4.9c2.4-1.3,5.3-4.1,3.1-6.4s-3.2-3-4.7-2.4S109.2,171.5,109.2,171.5z"/>
	<path class="st5" d="M121.7,177.4c0,0,3.6,6.1,6.1,4.9c2.4-1.3,5.3-4.1,3.1-6.4s-3.2-3-4.7-2.4S121.7,177.4,121.7,177.4z"/>
	<path class="st5" d="M133.4,186.9c0,0,3.6,6.1,6.1,4.9c2.4-1.3,5.3-4.1,3.1-6.4s-3.2-3-4.7-2.4S133.4,186.9,133.4,186.9z"/>
</g>
</svg>
