<svg xmlns="http://www.w3.org/2000/svg" width="41" height="30" viewBox="0 0 41 30">
  <metadata><?xpacket begin="﻿" id="W5M0MpCehiHzreSzNTczkc9d"?>
<x:xmpmeta xmlns:x="adobe:ns:meta/" x:xmptk="Adobe XMP Core 5.6-c142 79.160924, 2017/07/13-01:06:39        ">
   <rdf:RDF xmlns:rdf="http://www.w3.org/1999/02/22-rdf-syntax-ns#">
      <rdf:Description rdf:about=""/>
   </rdf:RDF>
</x:xmpmeta>
                                                                                                    
                                                                                                    
                                                                                                    
                                                                                                    
                                                                                                    
                                                                                                    
                                                                                                    
                                                                                                    
                                                                                                    
                                                                                                    
                                                                                                    
                                                                                                    
                                                                                                    
                                                                                                    
                                                                                                    
                                                                                                    
                                                                                                    
                                                                                                    
                                                                                                    
                                                                                                    
                           
<?xpacket end="w"?></metadata>
<defs>
    <style>
      .cls-1 {
        fill: #282827;
        fill-rule: evenodd;
      }
    </style>
  </defs>
  <path class="cls-1" d="M38.959,30H1.568a1.3,1.3,0,0,1-1.3-1.285V1.285A1.3,1.3,0,0,1,1.568,0H38.959a1.3,1.3,0,0,1,1.3,1.286V28.713A1.3,1.3,0,0,1,38.959,30Zm-1.3-27.428H2.872V7.686H37.654V2.571Zm0,7.686H2.872V27.428H37.654V10.257ZM12.549,14.428a1.317,1.317,0,0,1,1.839-.146l4.27,3.581a1.275,1.275,0,0,1,0,1.959L14.388,23.4a1.317,1.317,0,0,1-1.839-.146,1.273,1.273,0,0,1,.148-1.812l3.1-2.6-3.1-2.6A1.272,1.272,0,0,1,12.549,14.428Zm9.282,6.71h5.153a1.286,1.286,0,1,1,0,2.572H21.831A1.286,1.286,0,1,1,21.831,21.138Zm3.611-17.9A1.715,1.715,0,1,1,23.7,4.95,1.729,1.729,0,0,1,25.442,3.236Zm4.738,0A1.715,1.715,0,1,1,28.44,4.95,1.729,1.729,0,0,1,30.179,3.236Zm4.738,0A1.715,1.715,0,1,1,33.178,4.95,1.729,1.729,0,0,1,34.917,3.236Z"/>
</svg>
