<svg xmlns="http://www.w3.org/2000/svg" width="35" height="33" viewBox="0 0 35 33">
  <metadata><?xpacket begin="﻿" id="W5M0MpCehiHzreSzNTczkc9d"?>
<x:xmpmeta xmlns:x="adobe:ns:meta/" x:xmptk="Adobe XMP Core 5.6-c142 79.160924, 2017/07/13-01:06:39        ">
   <rdf:RDF xmlns:rdf="http://www.w3.org/1999/02/22-rdf-syntax-ns#">
      <rdf:Description rdf:about=""/>
   </rdf:RDF>
</x:xmpmeta>
                                                                                                    
                                                                                                    
                                                                                                    
                                                                                                    
                                                                                                    
                                                                                                    
                                                                                                    
                                                                                                    
                                                                                                    
                                                                                                    
                                                                                                    
                                                                                                    
                                                                                                    
                                                                                                    
                                                                                                    
                                                                                                    
                                                                                                    
                                                                                                    
                                                                                                    
                                                                                                    
                           
<?xpacket end="w"?></metadata>
<defs>
    <style>
      .cls-1 {
        fill: #282827;
        fill-rule: evenodd;
      }
    </style>
  </defs>
  <path class="cls-1" d="M30.87,31.624H28.779a0.693,0.693,0,0,1-.7-0.688V28.5h-5.6a0.667,0.667,0,0,1-.181.371L18.316,32.8a0.7,0.7,0,0,1-.986,0l-5.284-5.214V28.5H5.073a2.937,2.937,0,0,1-3.092-3.063v-6.88H2.892L0.4,16.09a0.681,0.681,0,0,1,0-.973l2.1-2.068H1.982v-5.5A2.809,2.809,0,0,1,5.073,4.482H21.806V5.1l4.583-4.522a2.131,2.131,0,0,1,2.914,0l0.964,0.951a2.013,2.013,0,0,1,0,2.874h0l-0.084.082H30.87a3.716,3.716,0,0,1,3.789,3.752V28.871h0C34.659,30.391,32.411,31.624,30.87,31.624ZM4.376,25.433a0.692,0.692,0,0,0,.7.688h5.489l-6.186-6.1v5.416ZM1.876,15.6L17.823,31.338,20.7,28.5H20.412l-0.039-.557L18.919,26.5l-1.5,1.48-0.986-.973,1.5-1.48-1.8-1.78-1.5,1.48-0.986-.973,1.5-1.48L13.34,21l-1.5,1.479-0.986-.973,1.5-1.479-1.8-1.779-1.5,1.479-0.986-.973,1.5-1.479-1.8-1.78-1.5,1.48L5.276,16l1.5-1.48-1.9-1.877Zm15.39-4.083,1.906,1.88L26.86,5.815l-1.905-1.88ZM16.586,12.8l-0.648,1.917,1.942-.639Zm12.7-10.3h0l-0.964-.95a0.688,0.688,0,0,0-.941,0L25.962,2.941l1.7,1.541h0.546l1.07-1.056A0.651,0.651,0,0,0,29.282,2.5Zm2.983,5.737A1.385,1.385,0,0,0,30.87,6.858h-3.1l-8.11,8a0.686,0.686,0,0,1-.278.159l0,0.009-0.255.084h6.158v2.376H14.834v-1h0a0.692,0.692,0,0,1-.7-0.688,0.681,0.681,0,0,1,.036-0.217l1.446-4.28,0.007,0a0.672,0.672,0,0,1,.162-0.271L20.02,6.858H5.073a0.692,0.692,0,0,0-.7.688v3.646l0,0a0.7,0.7,0,0,1,.986,0L20.381,26,30.87,26.12a4.228,4.228,0,0,1,1.394.277V8.234ZM30.87,27.5H29.476v2.752H30.87A1.376,1.376,0,1,0,30.87,27.5ZM29.476,15.113H30.87v1.376H29.476V15.113Zm-2.789,0h1.394v1.376H26.687V15.113Z"/>
</svg>
