<svg xmlns="http://www.w3.org/2000/svg" width="37" height="33" viewBox="0 0 37 33">
  <metadata><?xpacket begin="﻿" id="W5M0MpCehiHzreSzNTczkc9d"?>
<x:xmpmeta xmlns:x="adobe:ns:meta/" x:xmptk="Adobe XMP Core 5.6-c142 79.160924, 2017/07/13-01:06:39        ">
   <rdf:RDF xmlns:rdf="http://www.w3.org/1999/02/22-rdf-syntax-ns#">
      <rdf:Description rdf:about=""/>
   </rdf:RDF>
</x:xmpmeta>
                                                                                                    
                                                                                                    
                                                                                                    
                                                                                                    
                                                                                                    
                                                                                                    
                                                                                                    
                                                                                                    
                                                                                                    
                                                                                                    
                                                                                                    
                                                                                                    
                                                                                                    
                                                                                                    
                                                                                                    
                                                                                                    
                                                                                                    
                                                                                                    
                                                                                                    
                                                                                                    
                           
<?xpacket end="w"?></metadata>
<defs>
    <style>
      .cls-1 {
        fill: #282827;
        fill-rule: evenodd;
      }
    </style>
  </defs>
  <path class="cls-1" d="M20.547,12.375a1.409,1.409,0,0,1,1.37,1.787L18.728,25.333a1.422,1.422,0,0,1-2.74-.762L19.177,13.4A1.421,1.421,0,0,1,20.547,12.375Zm-10.834,6.7,3.472-2.9a1.4,1.4,0,1,0-1.8-2.143L7.9,16.933,7.9,16.938a3.268,3.268,0,0,0,0,4.995L7.9,21.939l3.477,2.9a1.4,1.4,0,1,0,1.8-2.143L9.713,19.8A0.478,0.478,0,0,1,9.713,19.072Zm18.262,0.733-3.407,2.9a1.4,1.4,0,0,0,1.826,2.125l3.4-2.9a3.267,3.267,0,0,0,0-4.991l-3.407-2.9a1.4,1.4,0,1,0-1.826,2.125l3.41,2.906A0.479,0.479,0,0,1,27.975,19.805ZM36.854,4.194v16.22a1.4,1.4,0,0,1-2.808,0V8.459H3.718V27.406a2.805,2.805,0,0,0,2.808,2.8H31.238a2.805,2.805,0,0,0,2.808-2.8,1.4,1.4,0,0,1,2.808,0A5.611,5.611,0,0,1,31.238,33H6.526A5.611,5.611,0,0,1,.91,27.406V4.194A4.208,4.208,0,0,1,5.122,0H32.642A4.208,4.208,0,0,1,36.854,4.194Zm-11.3,0a1.4,1.4,0,1,0,1.4-1.4A1.4,1.4,0,0,0,25.551,4.194Zm7.02-1.4a1.4,1.4,0,1,0,1.4,1.4A1.4,1.4,0,0,0,32.572,2.8ZM3.718,5.663H23.01A4.172,4.172,0,0,1,22.985,2.8H5.122a1.4,1.4,0,0,0-1.4,1.4V5.663Z"/>
</svg>
