<svg xmlns="http://www.w3.org/2000/svg" width="17" height="20" viewBox="0 0 23 29">
  <metadata><?xpacket begin="﻿" id="W5M0MpCehiHzreSzNTczkc9d"?>
<x:xmpmeta xmlns:x="adobe:ns:meta/" x:xmptk="Adobe XMP Core 5.6-c142 79.160924, 2017/07/13-01:06:39        ">
   <rdf:RDF xmlns:rdf="http://www.w3.org/1999/02/22-rdf-syntax-ns#">
      <rdf:Description rdf:about=""/>
   </rdf:RDF>
</x:xmpmeta>





















<?xpacket end="w"?></metadata>
<defs>
    <style>
      .cls-1 {
        fill: #ffcb05;
        fill-rule: evenodd;
      }
    </style>
  </defs>
  <path class="cls-1" d="M0,29V0H23V29H0ZM21.317,1.7H1.683V27.3H21.317V1.7ZM19.634,16.482H3.366V3.4H19.634V16.482Zm-3.306-1.7L11.5,11.014,6.672,14.783h9.657ZM5.049,13.9L10.124,9.94,5.049,5.978V13.9ZM6.672,5.1L11.5,8.866,16.328,5.1H6.672ZM17.951,5.978L12.876,9.94,17.951,13.9V5.978ZM10.715,25.6H3.366v-7.42h7.349V25.6ZM9.032,19.881H5.049V23.9H9.032V19.881Zm9.761,0h-5.61v-1.7h5.61v1.7Zm0,2.86h-5.61v-1.7h5.61v1.7Zm0,2.86h-5.61V23.9h5.61v1.7Z"/>
</svg>
