<?xml version="1.0" encoding="utf-8"?>
<!-- Generator: Adobe Illustrator 21.1.0, SVG Export Plug-In . SVG Version: 6.00 Build 0)  -->
<svg version="1.1" id="Layer_1" xmlns="http://www.w3.org/2000/svg" xmlns:xlink="http://www.w3.org/1999/xlink" x="0px" y="0px"
	 viewBox="0 0 1146 428" style="enable-background:new 0 0 1146 428;" xml:space="preserve">
<style type="text/css">
	.st0{fill-rule:evenodd;fill:white;clip-rule:evenodd;fill:white}
	.st1{fill-rule:evenodd;clip-rule:evenodd;fill:#29ABE2;}
	.st2{fill:white;}
	.st3{fill:#FFFFFF;stroke:white;stroke-width:4;stroke-miterlimit:10;}
</style>
<path class="st0" d="M212.69,158.96997c23.15002,0,42.90997,14.56,50.59003,35.03003h16.82996
	c18.29999-29.57001,36.10004-59.46002,54.12-89.20001c4.01001-6.59998,8.13-13.13,12.48999-20.15002
	c7.04004,5.31,13.22003,9.97003,19.41003,14.64001c0.70001-0.88,1.40002-1.77002,2.09998-2.64996
	c-10.5-14.49005-22.42999-27.53003-37.63-37.25c-0.75995,0.62994-1.50995,1.25995-2.25995,1.88995
	c3.91998,5.54999,7.84998,11.09003,12.13995,17.14001c-40.75,24.63-80.27997,49.44-120.79999,72.54999
	c-6.69,3.82001-11.41998,1.51001-16.16998-0.45996c-8.09003-3.37-15.33002-8.80005-22.91003-13.39001
	c-31.75995-19.22003-63.50995-38.46002-95.31995-57.72998C89.88,72.82996,94.04999,66.88,98.21997,60.91998
	c-0.77997-0.56-1.56-1.12-2.33997-1.67999C81.03003,69.59998,68.19,81.89996,58.23999,96.96997
	c0.69,0.79004,1.38,1.57001,2.07001,2.35004c5.85999-4.30005,11.72998-8.60004,18.04999-13.23004
	c22.67004,37.19,44.92999,74.28003,67.84003,110.96002c7.92999,12.69,5.06,23.64001-1.94,35.03998
	c-20.47998,33.36005-40.83002,66.81-61.26001,100.20001c-1.52002,2.47003-3.32001,4.78003-5,7.19
	c-6.34998-4.67999-12.09998-8.90997-17.84998-13.14001C59.14001,327.51996,58.13,328.69,57.12,329.87
	c12.62,12.60999,25.22998,25.22998,37.84998,37.83997c1.14001-1.09998,2.29004-2.20996,3.44-3.31995
	c-4.31-5.84003-8.62-11.68005-13.25995-17.96002c39.72998-24,78.84998-47.53998,117.87-71.25
	c7.63995-4.65002,14.15997-2.42999,20.95996,1.71997c22.41003,13.67004,44.92004,27.17004,67.37,40.76001
	C307.19,327.25,323,336.89996,338.82001,346.51996c-4.95001,6.79004-9.10004,12.49005-13.26001,18.19
	c15.23999-5.22998,35.06-25.5,39.88-39.34998c-7.47003,5.39001-13.34003,9.63-19.58002,14.13
	c-1.69-2.57001-3.42999-5.03003-4.96997-7.62c-15.88-26.58002-31.12-53.58002-47.42004-79.87h-43.38995
	c-9.71002,9.31-22.88,15.02997-37.39001,15.02997c-29.84003,0-54.03003-24.19-54.03003-54.02997
	C158.65997,183.15997,182.84998,158.96997,212.69,158.96997z"/>
<path class="st1" d="M143.21629,100.6519c-5.8374-3.5298-12.22751-6.3677-17.1797-10.8081
	c-2.6137-2.34621-3.6357-7.4454-3.8052-11.36971c-0.8735-20.2031-15.2426-38.001-34.3979-41.876
	c-20.7227-4.1889-40.2271,5.4673-49.1152,24.3174c-12.4038,26.3101,4.7563,59.7691,34.0302,60.9829
	c17.6294,0.7315,20.4502,11.77689,26.66261,22.441c-25.2148,12.01511-60.16309,0.3667-78.3452-25.7261
	c-19.1846-27.5318-15.5234-65.1616,8.6538-88.90919c24.1499-23.7251,62.1231-26.7285,89.0425-7.0478
	C144.38919,41.396,155.54979,76.1494,143.21629,100.6519z"/>
<path class="st1" d="M143.82278,324.77441c10.9765,31.33109-1.90479,65.02737-30.05379,81.85349
	c-28.7421,17.17581-65.0136,11.0723-88.16261-14.82809c-21.0551-23.56641-22.2226-61.0195-2.96139-87.01559
	c18.96579-25.59671,55.89849-34.18951,77.1133-22.99512c-3.6768,6.06641-6.8975,12.44632-11.21529,17.9599
	c-1.6216,2.0733-5.76761,2.94052-8.79691,3.01862c-26.1299,0.6777-45.3569,19.46579-45.0732,44.3847
	c0.2675,23.42969,19.642,42.8526,43.1616,43.26959c24.2832,0.43158,43.5551-19.5899,44.4775-45.29489
	c0.13529-3.7901,3.2422-8.28131,6.2813-10.9649C132.8286,330.41699,138.2925,328.0723,143.82278,324.77441z"/>
<path class="st1" d="M324.14789,144.377c2.79691-4.7476,5.6304-8.6451,7.5137-12.9581c2.9942-6.871,7.6524-8.7983,15.12891-8.7739
	c20.59329,0.0694,38.14069-15.28609,41.74268-35.2671c3.78372-20.9907-7.0679-40.8193-26.68109-48.7514
	c-18.85361-7.625-41.3736-1.002-52.1915,16.4228c-3.82028,6.1543-7.40179,13.9854-7.05508,20.8462
	c0.53659,10.6587-4.53082,15.4434-12.62161,19.4116c-3.02249,1.4834-5.9082,3.2466-8.8345,4.8706
	c-11.9809-20.53069-2.3291-55.75389,20.0347-74.3569c25.77341-21.4414,64.7222-21.3315,89.41159,0.252
	c26.8306,23.4545,32.7178,60.3471,14.32523,89.7661C387.57178,143.5869,352.78857,156.2832,324.14789,144.377z"/>
<path class="st1" d="M325.10107,281.35251c23.2363-11.88571,58.57471-0.5546,77.3642,24.8028
	c18.80811,25.3808,16.60352,64.2724-4.9267,86.89261c-24.5303,25.7695-62.26657,30.58298-90.3028,11.68057
	c-30.49698-20.57028-37.1015-59.69528-26.4585-79.61328c6.05472,3.66019,12.4122,6.87408,17.93851,11.16309
	c2.09079,1.6192,3.08011,5.69052,3.1778,8.68652c0.83002,25.82617,19.12061,45.1846,43.228,45.38678
	c24.43311,0.1972,44.28711-19.53418,44.4082-44.13379c0.12009-23.97659-19.50049-42.5791-45.0918-43.63672
	c-3.82031-0.15628-8.23389-3.24707-11.04349-6.23639c-3.42142-3.6377-5.45749-8.58789-8.02393-13.01361
	C325.06149,282.7998,325.17868,282.02151,325.10107,281.35251z"/>
<path class="st2" d="M176.42529,248.8613l15.2485-71.7226h30.38329c4.6685,0,8.7525,0.4707,12.25441,1.4126
	c3.50151,0.94141,6.39851,2.5034,8.6978,4.686c2.29489,2.18559,4.0273,5.0459,5.19479,8.584
	c1.1675,3.53999,1.7505,7.87059,1.7505,12.9897c0,5.49609-0.6963,10.8833-2.0889,16.1499
	c-1.3945,5.27449-3.7104,9.9805-6.9472,14.11919c-3.23779,4.14351-7.4727,7.47461-12.70509,9.998
	c-5.2359,2.5235-11.6909,3.7832-19.37061,3.7832H176.42529z M207.373,240.95509c2.48389,0,4.688-1.03319,6.608-3.1055
	c1.91989-2.07129,3.57608-4.7041,4.96869-7.9072c1.3945-3.1992,2.5601-6.7373,3.502-10.61819
	c0.9404-3.87601,1.6958-7.6221,2.2597-11.2392c0.56499-3.6138,0.97661-6.8506,1.2417-9.7115
	c0.26369-2.86031,0.3965-4.895,0.3965-6.1001c0-2.33301-0.4726-4.1591-1.4126-5.4785c-0.94141-1.31491-2.57961-1.9761-4.9131-1.9761
	h-5.42281l-12.084,56.13629H207.373z"/>
<path  class="st2" d="M258.80569,198.7168h18.41058l1.69431,8.4702h0.78961c1.7319-2.71089,3.95358-5.0063,6.66498-6.89059
	c2.71051-1.88141,6.28571-2.8242,10.7305-2.8242c0.29834,0,0.77103,0.02051,1.41061,0.05861
	c0.63919,0.03659,1.35651,0.14989,2.1456,0.33829c0.7915,0.1871,1.61859,0.45171,2.48581,0.78911
	c0.8652,0.33839,1.71091,0.81149,2.5415,1.41409l-4.97018,23.2675h-12.31152c-0.15192-4.6689-0.565-7.9257-1.24271-9.7724
	c-0.67731-1.8447-1.7695-2.7666-3.27539-2.7666c-0.75391,0-1.56351,0.1689-2.42871,0.5078
	c-0.8653,0.33981-1.75049,1.07521-2.6543,2.20311l-7.2276,33.7715h-23.0415L258.80569,198.7168z"/>
<path  class="st2" d="M339.78809,197.4722c8.96039,0,15.47409,1.58301,19.54001,4.7451c4.29248,3.313,6.439,8.811,6.439,16.49069
	c0,4.7422-0.7915,9.01761-2.3721,12.81931c-1.582,3.8028-3.80371,6.9463-6.66312,9.4317
	c-5.72357,4.81931-14.00677,7.2285-24.84909,7.2285c-9.26318,0-15.8891-1.76759-19.87988-5.3076
	c-4.29102-3.6895-6.43802-9.2236-6.43802-16.6055c0-4.89259,0.99811-9.3369,2.99319-13.32809
	c1.99411-3.98981,4.87451-7.3027,8.64111-9.93901C322.69427,199.3188,330.22458,197.4722,339.78809,197.4722z M332.1084,240.50681
	c1.88129,0,3.51999-1.05371,4.9126-3.16301c1.3931-2.1075,2.50238-4.68559,3.33148-7.7374
	c0.8287-3.0488,1.44882-6.2119,1.86481-9.4882c0.41309-3.27539,0.62009-6.1153,0.62009-8.52739
	c0-2.10541-0.207-3.70651-0.62009-4.80031c-0.41599-1.08879-1.2984-1.6382-2.6543-1.6382c-2.0332,0-3.78519,1.0938-5.2525,3.2764
	c-1.46921,2.1846-2.65329,4.78371-3.5571,7.79401c-0.90482,3.0117-1.56439,6.09959-1.978,9.2636
	c-0.41409,3.16121-0.62012,5.72169-0.62012,7.6797C328.15527,238.0605,329.4722,240.50681,332.1084,240.50681z"/>
<path  class="st2" d="M399.42578,205.9453c1.58099-1.50679,3.34909-2.89839,5.30859-4.18019c1.7309-1.05321,3.76562-2.0341,6.1001-2.938
	c2.33102-0.90331,4.9306-1.3549,7.79254-1.3549c3.91446,0,7.15277,0.9985,9.71237,2.9931
	c2.56049,1.9976,3.8403,4.7271,3.8403,8.19051c0,0.978-0.1113,2.1635-0.33841,3.55609c-0.22559,1.395-0.4892,2.8457-0.7905,4.3477
	c-0.30029,1.5088-0.62061,3.03419-0.9585,4.5761c-0.34027,1.54401-0.6221,2.9209-0.8486,4.1221l-4.7442,22.02541h-22.9267
	l6.21091-29.4785c0.15039-0.9776,0.33929-1.97661,0.5654-2.9922c0.22559-1.0186,0.3399-1.9399,0.3399-2.7695
	c0-1.12891-0.28372-2.05029-0.84872-2.7657c-0.56387-0.7168-1.4126-1.0732-2.54199-1.0732
	c-1.35449,0-2.65329,0.4883-3.89639,1.46919c-1.2417,0.97711-2.20169,1.80721-2.87988,2.483l-7.45462,35.12691h-23.0415
	l10.27832-48.56641h18.41019l2.0332,7.2285H399.42578z"/>
<path  class="st2" d="M459.96478,224.5811c-0.3002,1.6572-0.50577,3.2392-0.62009,4.74409c-0.11423,1.50681-0.1694,2.8623-0.1694,4.06441
	c0,0.6778,0.03708,1.43269,0.1113,2.2618c0.07669,0.8271,0.24509,1.5976,0.50931,2.31441
	c0.26218,0.71579,0.63959,1.3174,1.12888,1.8067c0.48782,0.4912,1.18561,0.7343,2.08942,0.7343
	c0.6792,0,1.4502-0.2285,2.31729-0.6797c0.86429-0.4501,1.73001-1.0869,2.5972-1.9169c0.8638-0.8291,1.69241-1.8448,2.48489-3.0518
	c0.79102-1.2021,1.4111-2.5576,1.86371-4.0645h18.522l-2.9346,12.086c-1.5087,0.97751-3.2402,1.8076-5.19669,2.48241
	c-1.95801,0.6797-4.02881,1.22659-6.21051,1.6377c-2.18549,0.4131-4.4072,0.7168-6.66699,0.90331
	c-2.2583,0.1875-4.40381,0.28419-6.43503,0.28419c-3.76859,0-7.26859-0.3389-10.50537-1.01759
	c-3.23831-0.6777-6.06302-1.8437-8.47223-3.5c-2.41058-1.65721-4.31198-3.85741-5.70358-6.60741
	c-1.3945-2.748-2.0889-6.1562-2.0889-10.2227c0-3.6875,0.58209-7.3007,1.75049-10.8427
	c1.16614-3.5401,3.12411-6.68069,5.87262-9.4312c2.74799-2.7475,6.43799-4.9507,11.07028-6.6069
	c4.63092-1.6572,10.40921-2.4868,17.33691-2.4868c7.52878,0,13.1958,1.1709,16.99808,3.5034
	c3.80173,2.3325,5.7041,5.9834,5.7041,10.95599c0,2.0318-0.3028,4.23541-0.9043,6.6084
	c-0.60156,2.37021-1.50488,4.3838-2.711,6.04111H459.96478z M474.98779,211.13921c0-2.33301-0.3779-3.9131-1.13141-4.7422
	c-0.7529-0.82961-1.6557-1.24471-2.70938-1.24471c-1.20563,0-2.31552,0.3965-3.33252,1.1866
	c-1.0166,0.7924-1.93848,1.8466-2.7662,3.16211c-0.8291,1.3183-1.58148,2.82419-2.2587,4.51849
	c-0.6792,1.6953-1.2417,3.48441-1.6954,5.3653h12.8765c0.15042-0.9034,0.30133-1.8438,0.45221-2.8252
	c0.14941-0.8262,0.28171-1.72951,0.3959-2.71001C474.93158,212.8726,474.98779,211.9688,474.98779,211.13921z"/>
<path  class="st2" d="M524.46039,175.56149h27.55817l1.92181,48.9053l18.8623-48.9053h22.36432l2.93457,48.9053l18.97461-48.9053h11.86029
	l-27.89648,71.72171h-25.414l-2.37109-40.54781l-16.94141,40.54781h-27.1109L524.46039,175.56149z"/>
<path  class="st2" d="M654.68646,197.4722c8.96002,0,15.47461,1.58301,19.5401,4.7451c4.29395,3.313,6.43842,8.811,6.43842,16.49069
	c0,4.7422-0.78998,9.01761-2.37109,12.81931c-1.58002,3.8028-3.8017,6.9463-6.664,9.4317
	c-5.72363,4.81931-14.00879,7.2285-24.84961,7.2285c-9.2608,0-15.88971-1.76759-19.87891-5.3076
	c-4.29199-3.6895-6.4375-9.2236-6.4375-16.6055c0-4.89259,0.99701-9.3369,2.99219-13.32809
	c1.99512-3.98981,4.875-7.3027,8.64252-9.93901C637.59467,199.3188,645.12299,197.4722,654.68646,197.4722z M647.00775,240.50681
	c1.88092,0,3.51953-1.05371,4.91315-3.16301c1.39355-2.1075,2.50287-4.68559,3.33197-7.7374
	c0.82623-3.0488,1.44629-6.2119,1.86328-9.4882c0.41113-3.27539,0.62012-6.1153,0.62012-8.52739
	c0-2.10541-0.20898-3.70651-0.62012-4.80031c-0.41699-1.08879-1.29974-1.6382-2.65613-1.6382
	c-2.03137,0-3.78235,1.0938-5.25201,3.2764c-1.46686,2.1846-2.65143,4.78371-3.55573,7.79401
	c-0.90326,3.0117-1.56543,6.09959-1.9765,9.2636c-0.41412,3.16121-0.62311,5.72169-0.62311,7.6797
	C643.05267,238.0605,644.37109,240.50681,647.00775,240.50681z"/>
<path  class="st2" d="M693.2041,198.7168h18.41205l1.69244,8.4702h0.79199c1.72949-2.71089,3.95117-5.0063,6.6601-6.89059
	c2.7168-1.88141,6.28912-2.8242,10.73248-2.8242c0.30072,0,0.77142,0.02051,1.4101,0.05861
	c0.63977,0.03659,1.3584,0.14989,2.15039,0.33829c0.78711,0.1871,1.61725,0.45171,2.48444,0.78911
	c0.86127,0.33839,1.71094,0.81149,2.54102,1.41409l-4.97174,23.2675H722.7959c-0.14844-4.6689-0.56641-7.9257-1.24323-9.7724
	c-0.6748-1.8447-1.76849-2.7666-3.27441-2.7666c-0.75287,0-1.56348,0.1689-2.42767,0.5078
	c-0.86621,0.33981-1.75,1.07521-2.65533,2.20311l-7.22748,33.7715H682.9248L693.2041,198.7168z"/>
<path  class="st2" d="M766.50488,219.2715l26.3183-20.5547h14.9043l-22.47162,18.40921l16.82916,30.1572h-25.30377l-11.51959-22.7021
	l-4.74408,22.7021h-23.04303l16.04102-75.9014h23.1543L766.50488,219.2715z"/>
<path  class="st2" d="M811.56842,198.7168h8.69916l1.01849-4.63179c0.97852-4.51761,2.40924-8.33891,4.29102-11.4644
	c1.88092-3.12451,4.12213-5.66501,6.72174-7.62451c2.59955-1.9561,5.5528-3.36909,8.86615-4.23489
	c3.3125-0.86571,6.85364-1.2998,10.6153-1.2998c2.33594,0,4.81934,0.1514,7.45514,0.4532
	c2.63757,0.3007,5.38367,0.78951,8.24799,1.46721l-1.80762,9.03569c-1.65918-0.22609-3.4278-0.39549-5.30957-0.50729
	c-1.8808-0.1138-3.38672-0.1705-4.51849-0.1705c-1.50592,0-2.80573,0.11279-3.8985,0.3399
	c-1.08881,0.2251-2.0498,0.6601-2.87891,1.29829c-0.83014,0.6407-1.54388,1.52541-2.14551,2.6548
	c-0.60352,1.1299-1.09473,2.63721-1.46869,4.5181l-2.14655,10.166h11.8623l-1.46875,7.56641h-11.97363l-8.69629,41h-23.04199
	l8.69629-41h-8.80762L811.56842,198.7168z"/>
<path  class="st2" d="M886.45898,197.4722c8.9541,0,15.46973,1.58301,19.539,4.7451c4.2901,3.313,6.43463,8.811,6.43463,16.49069
	c0,4.7422-0.78613,9.01761-2.37213,12.81931c-1.5791,3.8028-3.79877,6.9463-6.66211,9.4317
	c-5.72156,4.81931-14.00775,7.2285-24.84955,7.2285c-9.25781,0-15.88965-1.76759-19.87891-5.3076
	c-4.29102-3.6895-6.43555-9.2236-6.43555-16.6055c0-4.89259,0.99225-9.3369,2.99023-13.32809
	c1.99707-3.98981,4.87701-7.3027,8.64447-9.93901C869.36432,199.3188,876.89551,197.4722,886.45898,197.4722z M878.77539,240.50681
	c1.88092,0,3.51849-1.05371,4.91412-3.16301c1.39551-2.1075,2.50476-4.68559,3.33386-7.7374
	c0.82434-3.0488,1.44733-6.2119,1.85944-9.4882c0.41309-3.27539,0.625-6.1153,0.625-8.52739
	c0-2.10541-0.21191-3.70651-0.625-4.80031c-0.41211-1.08879-1.2998-1.6382-2.65143-1.6382c-2.0351,0-3.78406,1.0938-5.25287,3.2764
	c-1.46869,2.1846-2.65143,4.78371-3.5556,7.79401c-0.90344,3.0117-1.56451,6.09959-1.97559,9.2636
	c-0.41901,3.16121-0.625,5.72169-0.625,7.6797C874.82233,238.0605,876.13959,240.50681,878.77539,240.50681z"/>
<path  class="st2" d="M924.97272,198.7168h18.40906l1.69635,8.4702h0.78619c1.73425-2.71089,3.95306-5.0063,6.664-6.89059
	c2.7149-1.88141,6.28711-2.8242,10.73151-2.8242c0.30066,0,0.77148,0.02051,1.4101,0.05861
	c0.63965,0.03659,1.3584,0.14989,2.15039,0.33829c0.78711,0.1871,1.61719,0.45171,2.48236,0.78911
	c0.86334,0.33839,1.71393,0.81149,2.54401,1.41409l-4.97369,23.2675H954.5625c-0.14838-4.6689-0.56543-7.9257-1.24219-9.7724
	c-0.67773-1.8447-1.77051-2.7666-3.27539-2.7666c-0.75189,0-1.56439,0.1689-2.42584,0.5078
	c-0.86707,0.33981-1.75476,1.07521-2.6582,2.20311l-7.22748,33.7715h-23.04297L924.97272,198.7168z"/>
<path  class="st2" d="M1020.52539,244.5723c-3.16406,1.2812-6.49316,2.2041-9.99707,2.7666c-3.50293,0.56441-7.4765,0.8486-11.91504,0.8486
	c-3.9151,0-7.51367-0.3965-10.7901-1.1875c-3.27631-0.78909-6.11707-2.0498-8.52826-3.7812
	c-2.40924-1.7325-4.289-3.97079-5.64264-6.72169c-1.35736-2.74811-2.03406-6.08009-2.03406-9.9951
	c0-4.0665,0.69226-7.8526,2.08789-11.3526c1.39349-3.50099,3.50287-6.5674,6.3252-9.2041
	c2.82611-2.63719,6.41986-4.70599,10.78796-6.21429c4.3653-1.50301,9.55865-2.2588,15.58893-2.2588
	c4.89258,0,9.14551,0.3969,12.76068,1.186c3.61243,0.78999,6.58893,2.5811,8.92291,5.3662l-3.16406,14.457h-15.36035
	c0.07422-1.27831,0.15332-2.4091,0.22565-3.3867c0.0752-0.9785,0.11224-2.07219,0.11224-3.27679
	c0-2.40919-0.26367-4.1245-0.78705-5.1382c-0.52844-1.01761-1.39551-1.5274-2.60065-1.5274
	c-2.10736,0-3.9502,1.0386-5.53217,3.10699c-1.58502,2.0713-2.87988,4.5576-3.8985,7.45551
	c-1.01459,2.8985-1.77051,5.9502-2.25781,9.1485c-0.49017,3.20021-0.7334,5.9306-0.7334,8.1875
	c0,0.8291,0.03809,1.6777,0.11127,2.543c0.0733,0.86711,0.24225,1.6767,0.50781,2.4277
	c0.2627,0.75391,0.62213,1.3555,1.07233,1.8056c0.4541,0.4512,1.09467,0.6797,1.92291,0.6797
	c0.75085,0,1.61615-0.2285,2.59467-0.6797c0.97754-0.4501,1.92383-1.14551,2.82709-2.08881
	c0.9043-0.94139,1.76471-2.1631,2.59485-3.6709c0.82996-1.50591,1.46869-3.31149,1.92279-5.41989h16.1524L1020.52539,244.5723z"/>
<path  class="st2" d="M1053.8457,224.5811c-0.30078,1.6572-0.50781,3.2392-0.62305,4.74409c-0.11133,1.50681-0.16895,2.8623-0.16895,4.06441
	c0,0.6778,0.03613,1.43269,0.11133,2.2618c0.07812,0.8271,0.24805,1.5976,0.51074,2.31441
	c0.25977,0.71579,0.64062,1.3174,1.12695,1.8067c0.49023,0.4912,1.18848,0.7343,2.0918,0.7343
	c0.67676,0,1.44824-0.2285,2.31543-0.6797c0.86719-0.4501,1.73145-1.0869,2.59863-1.9169
	c0.8623-0.8291,1.69043-1.8448,2.4834-3.0518c0.79297-1.2021,1.41016-2.5576,1.86523-4.0645h18.52051l-2.93262,12.086
	c-1.51172,0.97751-3.23926,1.8076-5.19922,2.48241c-1.95508,0.6797-4.02539,1.22659-6.20996,1.6377
	c-2.18652,0.4131-4.40625,0.7168-6.66699,0.90331c-2.25684,0.1875-4.40137,0.28419-6.43555,0.28419
	c-3.76855,0-7.26562-0.3389-10.50586-1.01759c-3.2373-0.6777-6.05957-1.8437-8.46875-3.5
	c-2.40918-1.65721-4.3125-3.85741-5.70605-6.60741c-1.39648-2.748-2.08789-6.1562-2.08789-10.2227
	c0-3.6875,0.58203-7.3007,1.74902-10.8427c1.16797-3.5401,3.12207-6.68069,5.87598-9.4312
	c2.74609-2.7475,6.43555-4.9507,11.07031-6.6069c4.62695-1.6572,10.40918-2.4868,17.33594-2.4868
	c7.5293,0,13.19336,1.1709,16.99902,3.5034c3.79883,2.3325,5.7002,5.9834,5.7002,10.95599c0,2.0318-0.30176,4.23541-0.9043,6.6084
	c-0.60156,2.37021-1.50488,4.3838-2.71094,6.04111H1053.8457z M1068.86719,211.13921c0-2.33301-0.37891-3.9131-1.12988-4.7422
	c-0.75586-0.82961-1.6582-1.24471-2.70996-1.24471c-1.20605,0-2.31543,0.3965-3.33496,1.1866
	c-1.01367,0.7924-1.93848,1.8466-2.76367,3.16211c-0.82812,1.3183-1.58398,2.82419-2.26074,4.51849
	c-0.67676,1.6953-1.24219,3.48441-1.69531,5.3653h12.875c0.1543-0.9034,0.30176-1.8438,0.45605-2.8252
	c0.14648-0.8262,0.2793-1.72951,0.39551-2.71001C1068.80957,212.8726,1068.86719,211.9688,1068.86719,211.13921z"/>
<g>
	<path class="st2" d="M411.69427,297.97659h32.0816c1.5903,0,2.22513-0.63379,2.22513-1.58789v-8.5762
		c0-0.95309-0.63483-1.58789-2.22513-1.58789h-20.64459c-6.9892,0-11.43701-2.86032-11.43701-8.5762v-5.71872
		c0-5.7168,4.44781-8.5762,11.43701-8.5762h32.39801v7.30573h-28.90582c-1.5864,0-2.2226,0.6347-2.2226,1.58789v5.0849
		c0,0.9512,0.6362,1.58789,2.2226,1.58789h20.64651c6.9888,0,11.43509,2.85651,11.43509,8.5752v9.21191
		c0,5.71591-4.44629,8.5752-11.43509,8.5752h-35.57571V297.97659z"/>
	<path class="st2" d="M508.72409,281.7764c0-5.08109,3.81247-7.6221,10.16507-7.6221h16.51752
		c6.3526,0,10.16309,2.54102,10.16309,7.6221v15.88379c0,5.08002-3.81049,7.62201-10.16309,7.62201h-16.51752
		c-6.3526,0-10.16507-2.54199-10.16507-7.62201V281.7764z M521.74847,298.92969h10.79889c0.9541,0,1.58984-0.31638,1.58984-1.2695
		V281.7764c0-0.95319-0.63574-1.27051-1.58984-1.27051h-10.79889c-0.9541,0-1.58881,0.31732-1.58881,1.27051v15.88379
		C520.15967,298.61331,520.79437,298.92969,521.74847,298.92969z"/>
	<path class="st2" d="M595.58685,263.35349h11.43652v41.92871h-11.43652V263.35349z"/>
	<path class="st2" d="M657.0332,274.1543h11.43158v23.50589c0,0.95312,0.6358,1.2695,1.5899,1.2695h12.38672V274.1543h11.43561
		v31.1279h-26.67975c-6.35449,0-10.16406-2.54199-10.16406-7.62201V274.1543z"/>
	<path class="st2" d="M743.89447,263.35349h11.4375v10.80081h12.0694v6.35159h-12.0694v17.1543
		c0,0.95312,0.63092,1.2695,1.58301,1.2695h10.48639v6.35251h-13.34088c-6.3515,0-10.16602-2.54199-10.16602-7.62201V263.35349z"/>
	<path class="st2" d="M816.14648,263.35349h11.43164v6.35452h-11.43164V263.35349z M816.14648,274.1543h11.43164v31.1279h-11.43164
		V274.1543z"/>
	<path class="st2" d="M877.58789,281.7764c0-5.08109,3.8125-7.6221,10.16602-7.6221h16.5166
		c6.35059,0,10.16309,2.54102,10.16309,7.6221v15.88379c0,5.08002-3.8125,7.62201-10.16309,7.62201h-16.5166
		c-6.35352,0-10.16602-2.54199-10.16602-7.62201V281.7764z M890.6084,298.92969h10.80267c0.95325,0,1.58893-0.31638,1.58893-1.2695
		V281.7764c0-0.95319-0.63568-1.27051-1.58893-1.27051H890.6084c-0.95312,0-1.58301,0.31732-1.58301,1.27051v15.88379
		C889.02539,298.61331,889.65527,298.92969,890.6084,298.92969z"/>
	<path class="st2" d="M964.45312,274.1543h26.6778c6.35449,0,10.16791,2.54102,10.16791,7.6221v23.5058h-11.43842v-23.5058
		c0-0.95319-0.63483-1.27051-1.58893-1.27051h-12.3858v24.77631h-11.43256V274.1543z"/>
	<path class="st2" d="M1050.67773,298.92969h23.82324c0.9541,0,1.58984-0.31638,1.58984-1.2695v-4.44928
		c0-0.95111-0.63574-1.2695-1.58984-1.2695h-13.65625c-6.35449,0-10.16699-2.54001-10.16699-7.62399v-2.54102
		c0-5.08109,3.8125-7.6221,10.16699-7.6221h24.1377v6.35159h-21.2832c-0.94824,0-1.58301,0.31732-1.58301,1.27051v2.54102
		c0,0.9541,0.63477,1.2724,1.58301,1.2724h13.66113c6.35059,0,10.16309,2.54108,10.16309,7.62109v4.44928
		c0,5.08002-3.8125,7.62201-10.16309,7.62201h-26.68262V298.92969z"/>
</g>
<g>
	
		<ellipse transform="matrix(0.9999 -0.01398 0.01398 0.9999 -2.35781 15.60068)" class="st3" cx="1114.43457" cy="176.40869" rx="25.07536" ry="25.07536"/>
	<g>
		<path   d="M1120.89392,186.09471l-4.15027-6.66138c-0.31689,0.03618-0.66553,0.04105-1.01404,0.04593l-5.26025,0.07356
			l0.09351,6.68636l-3.73889,0.05229l-0.31018-22.1824l8.99915-0.12585c5.67224-0.07932,8.9751,2.63159,9.04248,7.4485
			c0.04968,3.54947-1.56262,6.07567-4.49463,7.2579l5.07971,7.3457L1120.89392,186.09471z M1115.68262,176.12021
			c3.42249-0.04785,5.36682-1.5332,5.32471-4.54364c-0.04077-2.91525-2.0249-4.28217-5.44751-4.2343l-5.26013,0.07356
			l0.12268,8.77794L1115.68262,176.12021z"/>
	</g>
</g>
</svg>
